<?xml version="1.0" encoding="UTF-8"?>
<svg id="Layer_2" data-name="Layer 2" xmlns="http://www.w3.org/2000/svg" viewBox="0 0 1627 254.11">
  <defs>
    <style>
      .cls-1 {
        fill: #283778;
        stroke-width: 0px;
      }
    </style>
  </defs>
  <g id="Layer_1-2" data-name="Layer 1">
    <g>
      <path class="cls-1" d="M1627,248h-54.69v-17.16c-1.54.72-2.57,1.05-3.44,1.62-72.37,47.78-172.19,14.24-192.19-78.74-12.62-58.66,17.58-119.45,71.08-143.17,11.63-5.16,23.78-8.46,36.5-9.54,1.27-.11,2.49-.66,3.74-1.01,5.67,0,11.33,0,17,0,1.09.32,2.17.84,3.28.92,22.22,1.68,42.61,8.59,61.03,21.22.71.49,1.62.69,2.99,1.26V6.42c2.2,0,3.99,0,5.78,0,12,0,24-.05,35.99.03,4.31.03,8.61.36,12.92.55v241ZM1572.19,127.36c0-13.15.12-26.31-.11-39.46-.04-2.43-.95-5.31-2.44-7.19-20.7-25.99-48.29-34.86-80.05-29.12-42,7.58-68.31,49.37-59.19,91.72,8.63,40.07,42.28,64.67,83.1,60.64,22.57-2.23,41.5-11.54,55.58-29.64,1.76-2.27,2.91-5.61,2.99-8.49.32-12.81.14-25.64.14-38.46Z"/>
      <path class="cls-1" d="M140,0c5.38.86,10.82,1.44,16.13,2.63,42.92,9.64,67.84,37.22,77.55,79.19,2.3,9.96,3.2,20.43,3.29,30.68.35,42.98.15,85.96.14,128.94,0,1.62-.16,3.25-.27,5.16h-57.65c0-2.08,0-4.02,0-5.96,0-41.65,0-83.3,0-124.94,0-11.82-2.22-23.17-7.58-33.77-8.43-16.67-22.46-25.52-40.57-27.98-30.4-4.14-52.43,10.55-70.95,32.48-1.18,1.4-1.21,4.04-1.22,6.11-.06,49.31-.05,98.62-.05,147.93,0,1.96,0,3.92,0,6.53H0V8h59.12v19.15c1.84-1.31,3.06-2.12,4.22-3.01,13.91-10.71,29.38-18.06,46.63-21.5C114.95,1.65,119.99.88,125,0,130,0,135,0,140,0Z"/>
      <path class="cls-1" d="M1210.2,150.05h-182.61c.19,1.85.15,3.13.46,4.33,6.77,25.52,27.78,44.1,54.01,47.69,15.39,2.11,30.81,2.3,44.94-4.95,6.15-3.16,11.03-8.79,16.56-13.2,1.41-1.13,3.11-2.68,4.69-2.7,18.83-.18,37.66-.11,56.49-.09.63,0,1.26.2,2.84.47-2.4,5.44-4.29,10.75-6.97,15.62-13.93,25.31-35.58,41.21-62.92,48.99-37.78,10.76-75.05,9.41-109.74-10.44-33.63-19.25-52.7-49.17-57.81-87.53-3.75-28.12-1.22-55.66,12.39-81.12,19.11-35.75,49.14-56.61,89.11-62.89,21.48-3.38,43.02-3.05,63.6,4.5,39.92,14.65,63.87,43.73,73.47,84.76,4.06,17.37,4.33,43.36,1.47,56.57ZM1152.78,106.8c-2.2-23.65-16.61-50.12-50.14-54.38-31.2-3.96-60.16,8.9-72.44,41.67-1.49,3.98-2.46,8.15-3.81,12.71h126.39Z"/>
      <path class="cls-1" d="M498.71,150.17h-182.91c.26,1.78.28,3.06.64,4.25,7.92,26.7,25.73,42.5,53.01,47.46,11.38,2.07,22.85,1.9,34.24-.63,11.63-2.59,21.46-7.9,28.52-17.81.75-1.06,2.25-2.24,3.41-2.25,19.8-.14,39.61-.1,61.29-.1-4.84,9.03-8.41,17.5-13.53,24.9-16.7,24.14-40.59,37.49-68.88,43.18-32.01,6.44-63.55,4.74-92.92-10.51-37.47-19.45-58.37-51.04-63.44-92.84-3.53-29.12-.04-57.3,15.04-83.02,19.79-33.75,49.44-53.22,88.14-58.76,23.97-3.43,47.72-2.48,70.02,7.67,36.92,16.8,59.13,45.92,66.19,85.6,2.68,15.08,1.64,30.82,2.18,46.26.07,1.95-.57,3.92-.99,6.59ZM440.8,106.8c.12-.87.38-1.52.28-2.12-2.68-16.25-8.71-30.89-22.33-40.99-18.96-14.05-40.1-14.87-61.8-8.11-26.98,8.41-39.9,34.61-41.49,51.22h125.33Z"/>
      <path class="cls-1" d="M485.73,247.91c30.92-41.06,61.13-81.2,91.58-121.65-30.19-39.66-60.33-79.23-91.02-119.54,2.45-.13,4.02-.29,5.6-.29,20.33-.02,40.67.07,61-.09,3.53-.03,5.76,1.04,7.88,3.89,16.94,22.69,34.05,45.27,51.12,67.87,1.19,1.57,2.46,3.08,4.12,5.16,1.57-1.94,2.91-3.53,4.17-5.18,17.36-22.59,34.76-45.14,52.01-67.82,2.13-2.8,4.33-3.96,7.89-3.93,21.81.16,43.63.08,66.87.08-30.75,40.56-60.84,80.25-91.24,120.35,30.31,40.09,60.59,80.13,91.4,120.88-2.19.12-3.44.25-4.69.25-20.33.01-40.67-.07-61,.09-3.22.02-5.15-1.05-7.02-3.57-17.86-24.09-35.84-48.09-53.79-72.11-.99-1.32-2.01-2.63-3.51-4.58-1.42,1.71-2.67,3.12-3.81,4.62-18.15,23.87-36.33,47.72-54.35,71.69-2.12,2.82-4.27,3.99-7.84,3.96-21.33-.17-42.65-.08-65.38-.08Z"/>
      <path class="cls-1" d="M755.15,200.08c49.08-49.22,98.15-98.44,147.69-148.13h-142.63V6.77h143.5v45.24h64.57c-48.74,49.64-97.61,99.41-146.91,149.62h143.28v45.09h-144.04v-45.04h-64.49c-.32-.53-.64-1.07-.97-1.6Z"/>
      <path class="cls-1" d="M1235.48,6.74h54.42v30.7c24.83-25.11,54.28-35.89,88.33-36.14v50.92c-9.59,1.57-19.16,2.62-28.48,4.78-23.17,5.36-42.22,17.62-57.17,36.08-1.69,2.08-2.65,5.37-2.66,8.1-.16,46.64-.11,93.28-.11,139.92,0,1.98,0,3.97,0,6.33h-54.33V6.74Z"/>
    </g>
  </g>
</svg>