<svg width="38" height="33" viewBox="0 0 38 33" fill="none" xmlns="http://www.w3.org/2000/svg">
<path d="M0 8.1838C0.167258 7.63022 0.362391 7.09509 0.808412 6.6799C1.40311 6.13554 2.1186 5.98792 2.89913 5.98792C8.94828 5.98792 14.9881 5.98792 21.0373 5.98792C25.7205 5.98792 30.4037 5.98792 35.0962 5.98792C35.7467 5.98792 36.3785 6.07096 36.9268 6.46769C37.633 6.98437 37.9861 7.6948 37.9861 8.55285C38.0046 10.3981 38.0046 12.2342 37.9861 14.0795C37.9675 15.3066 37.1312 16.2846 35.8953 16.5614C31.5559 17.5209 27.2258 18.4897 22.8864 19.4308C22.5333 19.5046 22.4311 19.643 22.4497 19.9843C22.4776 20.6855 22.4683 21.3867 22.459 22.0787C22.4497 22.8445 22.1709 23.1213 21.409 23.1305C19.8014 23.1305 18.1939 23.1305 16.5864 23.1305C15.8616 23.1305 15.5735 22.8537 15.555 22.1341C15.5457 21.3775 15.5364 20.6117 15.555 19.8552C15.5642 19.6061 15.4713 19.5138 15.239 19.4584C11.9868 18.748 8.73456 18.0283 5.48233 17.3087C4.35799 17.0596 3.24294 16.8197 2.1186 16.5614C1.07788 16.3215 0.39956 15.6941 0.0929209 14.6699C0.0650446 14.5869 0.0371684 14.5131 0.00929209 14.4301C0 12.3541 0 10.269 0 8.1838ZM22.4497 17.8069C22.6262 17.7792 22.7563 17.7608 22.8864 17.7331C27.04 16.8105 31.1935 15.8878 35.3564 14.9652C36.0533 14.8083 36.267 14.5592 36.267 13.8488C36.267 12.1696 36.267 10.4812 36.267 8.80197C36.267 8.01772 35.9883 7.72248 35.2077 7.72248C24.401 7.72248 13.5943 7.72248 2.79692 7.72248C2.01638 7.72248 1.73762 8.0085 1.72833 8.80197C1.72833 10.4812 1.72833 12.1696 1.72833 13.8488C1.72833 14.5592 1.94205 14.8176 2.63895 14.9652C5.91906 15.6941 9.18988 16.423 12.47 17.1518C13.4735 17.3733 14.4864 17.5947 15.5457 17.8254C15.5457 17.6224 15.5457 17.4748 15.5457 17.3179C15.5643 16.5798 15.843 16.2938 16.5864 16.2938C17.2275 16.2938 17.8687 16.2938 18.5191 16.2938C19.4948 16.2938 20.4705 16.2938 21.4461 16.2938C22.1338 16.2938 22.4125 16.5706 22.4497 17.2441C22.459 17.4194 22.4497 17.5947 22.4497 17.8069ZM17.2926 21.4144C18.4448 21.4144 19.5598 21.4144 20.6935 21.4144C20.6935 20.2704 20.6935 19.154 20.6935 18.0191C19.5506 18.0191 18.4355 18.0191 17.2926 18.0191C17.2926 19.154 17.2926 20.2611 17.2926 21.4144ZM34.2692 32.5599C34.7338 32.5599 35.2449 32.4861 35.6723 32.2923C36.7223 31.8218 37.1219 30.9268 37.1219 29.8104C37.1126 26.2398 37.1219 22.6692 37.1219 19.0986C37.1219 18.9879 37.1219 18.8772 37.1033 18.7665C37.0476 18.2406 36.648 17.9453 36.1184 18.0283C35.598 18.1114 35.3936 18.4159 35.3936 19.0894C35.3936 22.6231 35.3936 26.1568 35.3936 29.6905C35.3936 30.6039 35.1334 30.8622 34.1949 30.8622C24.0572 30.8622 13.9195 30.8622 3.78188 30.8622C2.84338 30.8622 2.59249 30.6131 2.59249 29.6905C2.59249 26.1845 2.59249 22.6692 2.59249 19.1632C2.59249 18.9694 2.57391 18.7665 2.52745 18.5819C2.4624 18.2959 2.26727 18.1206 1.97922 18.0468C1.31948 17.89 0.873456 18.2498 0.873456 18.9879C0.864164 22.6323 0.864164 26.2767 0.882749 29.9211C0.882749 30.3271 0.966377 30.7607 1.14293 31.1298C1.62612 32.1632 2.51816 32.5691 3.6425 32.5691C8.76244 32.5691 13.8824 32.5691 18.993 32.5691C24.0851 32.5691 29.1772 32.5784 34.2692 32.5599ZM22.97 0C21.8457 0 20.7214 0 19.597 0C17.9895 0 16.382 0 14.7744 0C13.8824 0 13.1297 0.30447 12.5908 1.03335C11.9868 1.84528 12.0147 2.78637 12.1541 3.71823C12.2098 4.08729 12.6094 4.29949 13.0089 4.27181C13.4271 4.24413 13.743 3.97657 13.7802 3.56138C13.8173 3.25691 13.7895 2.95244 13.808 2.63874C13.8359 2.02058 14.1333 1.70688 14.7558 1.70688C17.5713 1.69765 20.3961 1.69765 23.2116 1.70688C23.8528 1.70688 24.1501 2.02058 24.178 2.66642C24.1873 2.95244 24.1687 3.22923 24.1966 3.51525C24.2338 3.97657 24.5776 4.27181 25.0422 4.27181C25.4882 4.27181 25.8227 3.99502 25.8878 3.55216C25.9156 3.33072 25.8971 3.10929 25.8971 2.88786C25.8971 0.987222 24.8935 0 22.97 0Z" fill="white"/>
</svg>
