<svg width="38" height="49" viewBox="0 0 38 49" fill="none" xmlns="http://www.w3.org/2000/svg">
<path d="M24.1927 13.5133L25.4668 14.8021L18.4907 21.8586L17.2165 23.1474L15.9424 21.8586L12.5742 18.4516L13.8483 17.1628L17.2165 20.5698L24.1927 13.5133ZM18.9574 29.081C12.7508 29.0682 7.66686 23.913 7.65425 17.6094C7.65425 11.2547 12.7382 6.11224 19.0079 6.11224C25.265 6.11224 30.3615 11.2674 30.3615 17.5711C30.3741 23.9513 25.265 29.0938 18.9574 29.081ZM28.8603 17.5839C28.8351 12.0969 24.4324 7.61797 19.0583 7.64349C13.5329 7.66901 9.16806 12.0969 9.18068 17.6987C9.19329 23.1219 13.6591 27.5625 19.071 27.5497C24.4576 27.537 28.8729 23.0326 28.8603 17.5839ZM37.7792 44.9549C37.5143 45.2229 37.1989 45.2102 36.8583 45.0826C35.4076 44.5466 33.9568 44.0234 32.5061 43.5003C32.0393 43.3344 31.56 43.1557 31.0554 42.9771C30.967 43.1302 30.8661 43.2833 30.7904 43.4365C29.9326 45.0315 29.0748 46.6266 28.2043 48.2089C28.0529 48.4896 27.8259 48.732 27.624 49C27.4348 49 27.2456 49 27.0564 49C26.8671 48.7193 26.6274 48.4641 26.5013 48.1451C24.8739 43.8703 23.2718 39.5828 21.6571 35.2953C21.594 35.1422 21.5309 34.9125 21.4048 34.8615C20.8118 34.568 20.2189 34.2617 19.5882 34.0831C18.743 33.8534 17.9608 34.1469 17.1787 34.5297C16.6615 34.7977 16.3839 35.1549 16.1821 35.6909C14.643 39.8508 13.0788 43.9979 11.5019 48.1451C11.3883 48.4513 11.136 48.7193 10.9468 49C10.7576 49 10.5683 49 10.3791 49C10.1899 48.7448 9.9502 48.5023 9.79882 48.2089C8.85268 46.4862 7.91916 44.7508 6.97303 42.9898C6.80903 43.0409 6.67026 43.0792 6.51888 43.143C4.75276 43.781 2.99925 44.419 1.23313 45.0698C0.879907 45.1974 0.526683 45.274 0.223919 44.9677C-0.104075 44.6487 -0.0157689 44.2914 0.135613 43.9086C1.86389 39.3276 3.57955 34.7466 5.30783 30.1656C5.45921 29.7701 5.44659 29.5659 5.08075 29.2724C3.59217 28.0984 2.98664 26.5417 3.36509 24.6659C3.65524 23.2112 3.30202 22.0628 2.19188 21.0674C0.122998 19.2172 0.122998 15.9888 2.19188 14.1385C3.2894 13.1688 3.65524 12.0203 3.36509 10.5911C2.81003 7.78385 4.67707 5.24453 7.49025 4.9638C8.81484 4.82344 9.82405 4.2237 10.3791 2.97318C11.0856 1.39089 12.2588 0.408333 13.9492 0.0765625C13.9871 0.0638021 14.0249 0.0255208 14.0627 0C14.5043 0 14.9458 0 15.3873 0C16.1569 0.30625 16.9138 0.6125 17.6833 0.93151C18.5537 1.2888 19.4242 1.2888 20.2946 0.93151C21.0515 0.6125 21.8211 0.30625 22.5906 0C23.0321 0 23.4736 0 23.9152 0C24.5964 0.30625 25.3155 0.535938 25.9588 0.91875C26.6779 1.33984 27.1699 2.02891 27.4979 2.80729C28.0782 4.1599 29.0874 4.8362 30.5255 4.97656C33.263 5.23177 35.1679 7.82214 34.6128 10.5529C34.3227 12.0076 34.6633 13.156 35.7734 14.1513C37.8423 15.9888 37.8549 19.2299 35.7734 21.0802C34.6633 22.0755 34.3101 23.224 34.6002 24.6786C34.9661 26.5672 34.3479 28.1367 32.8467 29.3234C32.5439 29.5659 32.4809 29.7318 32.6196 30.1018C34.3353 34.6318 36.0383 39.1745 37.7414 43.7044C37.7792 43.8065 37.8171 43.9086 37.8675 44.0107C38.0568 44.3297 38.0568 44.6742 37.7792 44.9549ZM14.7692 35.2188C12.8643 35.0656 11.3883 34.2745 10.6062 32.5646C9.87451 30.944 8.68869 30.1911 6.92257 30.2039C5.33306 34.4659 3.71832 38.7406 2.07835 43.1047C2.34327 43.0154 2.50726 42.9643 2.67126 42.9133C4.00847 42.4284 5.33306 41.9435 6.67026 41.4586C7.60378 41.1141 7.75517 41.1779 8.24716 42.0711C9.00407 43.4875 9.77359 44.8911 10.581 46.3969C11.9939 42.5943 13.3815 38.9193 14.7692 35.2188ZM23.0447 33.6492C24.4198 33.7641 25.5804 33.0112 26.1985 31.6586C26.8797 30.1529 28.0025 29.1958 29.6046 28.8258C29.9705 28.7365 30.3615 28.7365 30.7274 28.6599C32.443 28.2898 33.5279 26.6182 33.1495 24.8828C32.7458 22.956 33.2378 21.3227 34.7011 20.0083C34.9408 19.7914 35.1805 19.5362 35.3445 19.2555C36.2023 17.9029 35.9122 16.2695 34.6507 15.1211C33.2756 13.8833 32.7584 12.3393 33.099 10.5146C33.1495 10.2211 33.1873 9.91484 33.2378 9.64688C33.2126 9.39167 33.1999 9.16198 33.1495 8.94505C32.8467 7.59245 31.7997 6.6099 30.4246 6.46953C28.3936 6.26537 26.9807 5.25729 26.1228 3.36875C25.3281 1.62057 23.3349 1.00807 21.6318 1.92682C21.266 2.11823 20.9128 2.3224 20.5217 2.45C19.0962 2.92214 17.7338 2.70521 16.4344 1.9651C14.7187 0.995313 12.7129 1.60781 11.9056 3.36875C11.0477 5.28281 9.60959 6.27813 7.56594 6.49505C5.73674 6.68646 4.48784 8.46016 4.87891 10.2849C5.29521 12.2628 4.77799 13.8833 3.27679 15.2359C1.81343 16.5375 1.82604 18.6685 3.2894 19.9828C4.77799 21.3099 5.2826 22.9305 4.89153 24.8828C4.80322 25.3294 4.80322 25.8143 4.89153 26.2482C5.19429 27.6901 6.22873 28.5323 7.90655 28.7492C9.74836 28.9917 11.0477 29.9615 11.8299 31.6586C12.7129 33.5727 14.6809 34.2107 16.4975 33.1898C18.1753 32.2456 19.8405 32.2456 21.5309 33.1771C21.9977 33.4323 22.5275 33.6109 23.0447 33.6492ZM35.95 43.0919C34.3101 38.7279 32.6953 34.4531 31.0932 30.1784C30.8661 30.2039 30.6895 30.2294 30.5129 30.2422C29.1 30.357 28.1034 31.0589 27.5231 32.3859C27.3843 32.7049 27.2077 33.0112 26.9933 33.2919C26.0724 34.5297 24.8109 35.1167 23.2466 35.2188C24.6469 38.932 26.0345 42.6198 27.4474 46.3714C27.561 46.1672 27.6493 46.0396 27.725 45.8992C28.444 44.5594 29.1757 43.2195 29.8948 41.8669C30.2354 41.2417 30.4877 41.1396 31.1689 41.382C32.5944 41.8924 34.0073 42.4156 35.4328 42.926C35.5716 42.9898 35.723 43.0154 35.95 43.0919Z" fill="white"/>
</svg>
