<svg width="224" height="47" viewBox="0 0 224 47" fill="none" xmlns="http://www.w3.org/2000/svg">
<g filter="url(#filter0_d_351_97)">
<rect x="30.5" y="2.5" width="170" height="35" rx="17.5" fill="#FEDBFF"/>
<rect x="30.5" y="2.5" width="170" height="35" rx="17.5" stroke="#6F6F6F"/>
<path d="M56.616 15.242C57.68 15.242 58.5993 15.4427 59.374 15.844C60.158 16.236 60.7553 16.8007 61.166 17.538C61.586 18.2753 61.796 19.1433 61.796 20.142C61.796 21.1407 61.586 22.0087 61.166 22.746C60.7553 23.474 60.158 24.034 59.374 24.426C58.5993 24.8087 57.68 25 56.616 25H53.578V15.242H56.616ZM56.616 23.95C57.876 23.95 58.8373 23.6187 59.5 22.956C60.1627 22.284 60.494 21.346 60.494 20.142C60.494 18.9287 60.158 17.9813 59.486 17.3C58.8233 16.6187 57.8667 16.278 56.616 16.278H54.852V23.95H56.616ZM64.6344 16.082C64.3918 16.082 64.1864 15.998 64.0184 15.83C63.8504 15.662 63.7664 15.4567 63.7664 15.214C63.7664 14.9713 63.8504 14.766 64.0184 14.598C64.1864 14.43 64.3918 14.346 64.6344 14.346C64.8678 14.346 65.0638 14.43 65.2224 14.598C65.3904 14.766 65.4744 14.9713 65.4744 15.214C65.4744 15.4567 65.3904 15.662 65.2224 15.83C65.0638 15.998 64.8678 16.082 64.6344 16.082ZM65.2504 17.328V25H63.9764V17.328H65.2504ZM71.0858 17.202C71.7484 17.202 72.3271 17.3467 72.8218 17.636C73.3258 17.9253 73.6991 18.2893 73.9418 18.728V17.328H75.2298V25.168C75.2298 25.868 75.0804 26.4887 74.7818 27.03C74.4831 27.5807 74.0538 28.01 73.4938 28.318C72.9431 28.626 72.2991 28.78 71.5618 28.78C70.5538 28.78 69.7138 28.542 69.0418 28.066C68.3698 27.59 67.9731 26.9413 67.8518 26.12H69.1118C69.2518 26.5867 69.5411 26.96 69.9798 27.24C70.4184 27.5293 70.9458 27.674 71.5618 27.674C72.2618 27.674 72.8311 27.4547 73.2698 27.016C73.7178 26.5773 73.9418 25.9613 73.9418 25.168V23.558C73.6898 24.006 73.3164 24.3793 72.8218 24.678C72.3271 24.9767 71.7484 25.126 71.0858 25.126C70.4044 25.126 69.7838 24.958 69.2238 24.622C68.6731 24.286 68.2391 23.8147 67.9218 23.208C67.6044 22.6013 67.4458 21.9107 67.4458 21.136C67.4458 20.352 67.6044 19.666 67.9218 19.078C68.2391 18.4807 68.6731 18.0187 69.2238 17.692C69.7838 17.3653 70.4044 17.202 71.0858 17.202ZM73.9418 21.15C73.9418 20.5713 73.8251 20.0673 73.5918 19.638C73.3584 19.2087 73.0411 18.882 72.6398 18.658C72.2478 18.4247 71.8138 18.308 71.3378 18.308C70.8618 18.308 70.4278 18.42 70.0358 18.644C69.6438 18.868 69.3311 19.1947 69.0978 19.624C68.8644 20.0533 68.7478 20.5573 68.7478 21.136C68.7478 21.724 68.8644 22.2373 69.0978 22.676C69.3311 23.1053 69.6438 23.4367 70.0358 23.67C70.4278 23.894 70.8618 24.006 71.3378 24.006C71.8138 24.006 72.2478 23.894 72.6398 23.67C73.0411 23.4367 73.3584 23.1053 73.5918 22.676C73.8251 22.2373 73.9418 21.7287 73.9418 21.15ZM78.5407 16.082C78.298 16.082 78.0927 15.998 77.9247 15.83C77.7567 15.662 77.6727 15.4567 77.6727 15.214C77.6727 14.9713 77.7567 14.766 77.9247 14.598C78.0927 14.43 78.298 14.346 78.5407 14.346C78.774 14.346 78.97 14.43 79.1287 14.598C79.2967 14.766 79.3807 14.9713 79.3807 15.214C79.3807 15.4567 79.2967 15.662 79.1287 15.83C78.97 15.998 78.774 16.082 78.5407 16.082ZM79.1567 17.328V25H77.8827V17.328H79.1567ZM83.382 18.378V22.9C83.382 23.2733 83.4613 23.5393 83.62 23.698C83.7787 23.8473 84.054 23.922 84.446 23.922H85.384V25H84.236C83.5267 25 82.9947 24.8367 82.64 24.51C82.2853 24.1833 82.108 23.6467 82.108 22.9V18.378H81.114V17.328H82.108V15.396H83.382V17.328H85.384V18.378H83.382ZM86.9516 21.136C86.9516 20.352 87.1103 19.666 87.4276 19.078C87.7449 18.4807 88.1789 18.0187 88.7296 17.692C89.2896 17.3653 89.9103 17.202 90.5916 17.202C91.2636 17.202 91.8469 17.3467 92.3416 17.636C92.8363 17.9253 93.2049 18.2893 93.4476 18.728V17.328H94.7356V25H93.4476V23.572C93.1956 24.02 92.8176 24.3933 92.3136 24.692C91.8189 24.9813 91.2403 25.126 90.5776 25.126C89.8963 25.126 89.2803 24.958 88.7296 24.622C88.1789 24.286 87.7449 23.8147 87.4276 23.208C87.1103 22.6013 86.9516 21.9107 86.9516 21.136ZM93.4476 21.15C93.4476 20.5713 93.3309 20.0673 93.0976 19.638C92.8643 19.2087 92.5469 18.882 92.1456 18.658C91.7536 18.4247 91.3196 18.308 90.8436 18.308C90.3676 18.308 89.9336 18.42 89.5416 18.644C89.1496 18.868 88.8369 19.1947 88.6036 19.624C88.3703 20.0533 88.2536 20.5573 88.2536 21.136C88.2536 21.724 88.3703 22.2373 88.6036 22.676C88.8369 23.1053 89.1496 23.4367 89.5416 23.67C89.9336 23.894 90.3676 24.006 90.8436 24.006C91.3196 24.006 91.7536 23.894 92.1456 23.67C92.5469 23.4367 92.8643 23.1053 93.0976 22.676C93.3309 22.2373 93.4476 21.7287 93.4476 21.15ZM98.6625 14.64V25H97.3885V14.64H98.6625ZM115.464 15.312V25H114.19V17.776L110.97 25H110.074L106.84 17.762V25H105.566V15.312H106.938L110.522 23.32L114.106 15.312H115.464ZM117.649 21.136C117.649 20.352 117.808 19.666 118.125 19.078C118.442 18.4807 118.876 18.0187 119.427 17.692C119.987 17.3653 120.608 17.202 121.289 17.202C121.961 17.202 122.544 17.3467 123.039 17.636C123.534 17.9253 123.902 18.2893 124.145 18.728V17.328H125.433V25H124.145V23.572C123.893 24.02 123.515 24.3933 123.011 24.692C122.516 24.9813 121.938 25.126 121.275 25.126C120.594 25.126 119.978 24.958 119.427 24.622C118.876 24.286 118.442 23.8147 118.125 23.208C117.808 22.6013 117.649 21.9107 117.649 21.136ZM124.145 21.15C124.145 20.5713 124.028 20.0673 123.795 19.638C123.562 19.2087 123.244 18.882 122.843 18.658C122.451 18.4247 122.017 18.308 121.541 18.308C121.065 18.308 120.631 18.42 120.239 18.644C119.847 18.868 119.534 19.1947 119.301 19.624C119.068 20.0533 118.951 20.5573 118.951 21.136C118.951 21.724 119.068 22.2373 119.301 22.676C119.534 23.1053 119.847 23.4367 120.239 23.67C120.631 23.894 121.065 24.006 121.541 24.006C122.017 24.006 122.451 23.894 122.843 23.67C123.244 23.4367 123.562 23.1053 123.795 22.676C124.028 22.2373 124.145 21.7287 124.145 21.15ZM129.36 18.574C129.584 18.1353 129.901 17.7947 130.312 17.552C130.732 17.3093 131.24 17.188 131.838 17.188V18.504H131.502C130.074 18.504 129.36 19.2787 129.36 20.828V25H128.086V17.328H129.36V18.574ZM138.092 25L135.082 21.612V25H133.808V14.64H135.082V20.73L138.036 17.328H139.814L136.202 21.15L139.828 25H138.092ZM148.514 20.87C148.514 21.1127 148.5 21.3693 148.472 21.64H142.34C142.386 22.396 142.643 22.9887 143.11 23.418C143.586 23.838 144.16 24.048 144.832 24.048C145.382 24.048 145.84 23.922 146.204 23.67C146.577 23.4087 146.838 23.0633 146.988 22.634H148.36C148.154 23.3713 147.744 23.9733 147.128 24.44C146.512 24.8973 145.746 25.126 144.832 25.126C144.104 25.126 143.45 24.9627 142.872 24.636C142.302 24.3093 141.854 23.8473 141.528 23.25C141.201 22.6433 141.038 21.9433 141.038 21.15C141.038 20.3567 141.196 19.6613 141.514 19.064C141.831 18.4667 142.274 18.0093 142.844 17.692C143.422 17.3653 144.085 17.202 144.832 17.202C145.56 17.202 146.204 17.3607 146.764 17.678C147.324 17.9953 147.753 18.434 148.052 18.994C148.36 19.5447 148.514 20.17 148.514 20.87ZM147.198 20.604C147.198 20.1187 147.09 19.7033 146.876 19.358C146.661 19.0033 146.367 18.7373 145.994 18.56C145.63 18.3733 145.224 18.28 144.776 18.28C144.132 18.28 143.581 18.4853 143.124 18.896C142.676 19.3067 142.419 19.876 142.354 20.604H147.198ZM152.249 18.378V22.9C152.249 23.2733 152.329 23.5393 152.487 23.698C152.646 23.8473 152.921 23.922 153.313 23.922H154.251V25H153.103C152.394 25 151.862 24.8367 151.507 24.51C151.153 24.1833 150.975 23.6467 150.975 22.9V18.378H149.981V17.328H150.975V15.396H152.249V17.328H154.251V18.378H152.249ZM156.953 16.082C156.71 16.082 156.505 15.998 156.337 15.83C156.169 15.662 156.085 15.4567 156.085 15.214C156.085 14.9713 156.169 14.766 156.337 14.598C156.505 14.43 156.71 14.346 156.953 14.346C157.186 14.346 157.382 14.43 157.541 14.598C157.709 14.766 157.793 14.9713 157.793 15.214C157.793 15.4567 157.709 15.662 157.541 15.83C157.382 15.998 157.186 16.082 156.953 16.082ZM157.569 17.328V25H156.295V17.328H157.569ZM163.978 17.188C164.911 17.188 165.667 17.4727 166.246 18.042C166.825 18.602 167.114 19.414 167.114 20.478V25H165.854V20.66C165.854 19.8947 165.663 19.3113 165.28 18.91C164.897 18.4993 164.375 18.294 163.712 18.294C163.04 18.294 162.503 18.504 162.102 18.924C161.71 19.344 161.514 19.9553 161.514 20.758V25H160.24V17.328H161.514V18.42C161.766 18.028 162.107 17.7247 162.536 17.51C162.975 17.2953 163.455 17.188 163.978 17.188ZM172.859 17.202C173.522 17.202 174.101 17.3467 174.595 17.636C175.099 17.9253 175.473 18.2893 175.715 18.728V17.328H177.003V25.168C177.003 25.868 176.854 26.4887 176.555 27.03C176.257 27.5807 175.827 28.01 175.267 28.318C174.717 28.626 174.073 28.78 173.335 28.78C172.327 28.78 171.487 28.542 170.815 28.066C170.143 27.59 169.747 26.9413 169.625 26.12H170.885C171.025 26.5867 171.315 26.96 171.753 27.24C172.192 27.5293 172.719 27.674 173.335 27.674C174.035 27.674 174.605 27.4547 175.043 27.016C175.491 26.5773 175.715 25.9613 175.715 25.168V23.558C175.463 24.006 175.09 24.3793 174.595 24.678C174.101 24.9767 173.522 25.126 172.859 25.126C172.178 25.126 171.557 24.958 170.997 24.622C170.447 24.286 170.013 23.8147 169.695 23.208C169.378 22.6013 169.219 21.9107 169.219 21.136C169.219 20.352 169.378 19.666 169.695 19.078C170.013 18.4807 170.447 18.0187 170.997 17.692C171.557 17.3653 172.178 17.202 172.859 17.202ZM175.715 21.15C175.715 20.5713 175.599 20.0673 175.365 19.638C175.132 19.2087 174.815 18.882 174.413 18.658C174.021 18.4247 173.587 18.308 173.111 18.308C172.635 18.308 172.201 18.42 171.809 18.644C171.417 18.868 171.105 19.1947 170.871 19.624C170.638 20.0533 170.521 20.5573 170.521 21.136C170.521 21.724 170.638 22.2373 170.871 22.676C171.105 23.1053 171.417 23.4367 171.809 23.67C172.201 23.894 172.635 24.006 173.111 24.006C173.587 24.006 174.021 23.894 174.413 23.67C174.815 23.4367 175.132 23.1053 175.365 22.676C175.599 22.2373 175.715 21.7287 175.715 21.15Z" fill="black"/>
<path d="M219.345 29.8437L214.253 33.375L214.211 39.572L208.01 30.0805L219.345 29.8437Z" fill="#33FF00" stroke="black" stroke-width="0.8" stroke-miterlimit="10"/>
<path d="M16.21 12.14C17.7647 12.14 19.1287 12.448 20.302 13.064C21.49 13.68 22.4067 14.538 23.052 15.638C23.712 16.738 24.042 17.9993 24.042 19.422C24.042 20.566 23.866 21.6513 23.514 22.678C23.1767 23.7047 22.6853 24.5407 22.04 25.186C21.3947 25.8167 20.632 26.132 19.752 26.132C19.048 26.132 18.52 25.9193 18.168 25.494C17.8307 25.054 17.6767 24.4747 17.706 23.756C17.266 24.504 16.6793 25.0907 15.946 25.516C15.2273 25.9267 14.4573 26.132 13.636 26.132C12.536 26.132 11.6707 25.7947 11.04 25.12C10.424 24.4453 10.116 23.536 10.116 22.392C10.116 21.3213 10.336 20.324 10.776 19.4C11.2307 18.4613 11.8613 17.7133 12.668 17.156C13.4747 16.584 14.384 16.298 15.396 16.298C16.188 16.298 16.848 16.4887 17.376 16.87C17.9187 17.2513 18.2853 17.8013 18.476 18.52L18.806 16.584H19.686L18.564 23.03C18.52 23.2647 18.498 23.4993 18.498 23.734C18.498 24.2473 18.6153 24.6507 18.85 24.944C19.0993 25.2373 19.4513 25.384 19.906 25.384C20.566 25.384 21.1453 25.0907 21.644 24.504C22.1427 23.9173 22.524 23.1767 22.788 22.282C23.052 21.3727 23.184 20.456 23.184 19.532C23.184 18.1827 22.8907 17.0093 22.304 16.012C21.732 15.0147 20.9107 14.2447 19.84 13.702C18.7693 13.1593 17.5153 12.888 16.078 12.888C14.3033 12.888 12.69 13.3353 11.238 14.23C9.786 15.11 8.642 16.3127 7.806 17.838C6.98467 19.3487 6.574 21.006 6.574 22.81C6.574 24.1887 6.86 25.3693 7.432 26.352C8.004 27.3493 8.818 28.112 9.874 28.64C10.9447 29.168 12.184 29.432 13.592 29.432C14.8973 29.432 16.1073 29.19 17.222 28.706L17.376 29.454C16.1293 29.9527 14.7947 30.202 13.372 30.202C11.8613 30.202 10.5267 29.9013 9.368 29.3C8.20933 28.7133 7.30733 27.87 6.662 26.77C6.01667 25.6847 5.694 24.4087 5.694 22.942C5.694 20.9327 6.14867 19.1067 7.058 17.464C7.96733 15.8213 9.22133 14.5233 10.82 13.57C12.4187 12.6167 14.2153 12.14 16.21 12.14ZM13.9 25.318C14.5747 25.318 15.2053 25.1493 15.792 24.812C16.3787 24.46 16.87 23.9613 17.266 23.316C17.6767 22.656 17.9407 21.886 18.058 21.006C18.1167 20.7127 18.146 20.4047 18.146 20.082C18.146 19.1873 17.904 18.4687 17.42 17.926C16.9507 17.3687 16.2613 17.09 15.352 17.09C14.5013 17.09 13.746 17.3393 13.086 17.838C12.4407 18.322 11.942 18.96 11.59 19.752C11.238 20.544 11.062 21.38 11.062 22.26C11.062 23.1987 11.3113 23.9467 11.81 24.504C12.3087 25.0467 13.0053 25.318 13.9 25.318Z" fill="black" fill-opacity="0.6"/>
</g>
<defs>
<filter id="filter0_d_351_97" x="0.693359" y="0" width="222.971" height="46.9019" filterUnits="userSpaceOnUse" color-interpolation-filters="sRGB">
<feFlood flood-opacity="0" result="BackgroundImageFix"/>
<feColorMatrix in="SourceAlpha" type="matrix" values="0 0 0 0 0 0 0 0 0 0 0 0 0 0 0 0 0 0 127 0" result="hardAlpha"/>
<feOffset dx="-1" dy="2"/>
<feGaussianBlur stdDeviation="2"/>
<feComposite in2="hardAlpha" operator="out"/>
<feColorMatrix type="matrix" values="0 0 0 0 0 0 0 0 0 0 0 0 0 0 0 0 0 0 0.3 0"/>
<feBlend mode="normal" in2="BackgroundImageFix" result="effect1_dropShadow_351_97"/>
<feBlend mode="normal" in="SourceGraphic" in2="effect1_dropShadow_351_97" result="shape"/>
</filter>
</defs>
</svg>
