<svg width="16" height="12" viewBox="0 0 16 12" fill="none" xmlns="http://www.w3.org/2000/svg">
<path fill-rule="evenodd" clip-rule="evenodd" d="M1.32197 11.52H13.7548C14.4787 11.52 15.0767 10.922 15.0767 10.198V1.32197C15.0767 0.598033 14.4787 0 13.7548 0H1.32197C0.598033 0 0 0.598033 0 1.32197V10.198C0 10.922 0.598033 11.52 1.32197 11.52ZM0.863583 1.17594C0.911319 0.983538 1.07862 0.849836 1.29049 0.849836H13.7233C13.927 0.849836 14.0895 0.973456 14.1442 1.15402L8.78292 6.51526C8.09046 7.20772 6.92587 7.20772 6.23341 6.51526L0.863583 1.17594ZM0.849836 2.35923V9.09752L4.21898 5.72837L0.849836 2.35923ZM0.863332 10.2801L4.81701 6.32641L5.63538 7.14477C6.13898 7.64837 6.79996 7.93165 7.49242 7.93165C8.18488 7.93165 8.84587 7.64837 9.34947 7.14477L10.1678 6.32641L14.1442 10.3028C14.0897 10.4835 13.9271 10.6072 13.7233 10.6072H1.29049C1.07825 10.6072 0.91073 10.473 0.863332 10.2801ZM14.1639 9.12644V2.33031L10.7659 5.72837L14.1639 9.12644Z" fill="white" fill-opacity="0.5"/>
</svg>
