<svg width="39" height="38" viewBox="0 0 39 38" fill="none" xmlns="http://www.w3.org/2000/svg">
<path d="M38.7706 35.984C38.6067 35.2411 38.4538 34.5201 38.3008 33.81L38.279 33.7226C37.8857 31.8873 37.5143 30.1504 37.1429 28.4789C36.9899 27.7798 36.826 27.2008 36.6294 26.6764C34.7176 21.4983 29.7143 17.7294 23.8697 17.063C23.3782 17.0084 22.8647 16.9756 22.2202 16.9756H22.2092C21.4118 16.9756 20.7345 17.2815 20.3412 17.8168C19.9916 18.2865 19.9151 18.8764 20.1008 19.4663C21.1496 22.6344 22.0454 25.3218 22.9193 27.9218C22.0891 28.6974 21.2807 29.4731 20.4176 30.3033C20.4176 30.3033 19.784 30.9151 19.5218 31.1554L19.2487 30.8932C18.1782 29.8663 17.1622 28.8831 16.1681 27.9218C16.7143 26.2504 17.2387 24.6663 17.7521 23.126L17.7958 22.9949C18.2 21.7932 18.5824 20.6243 18.9538 19.4991C19.1613 18.8764 19.063 18.2428 18.6916 17.7621C18.2983 17.2596 17.6647 16.9756 16.9109 16.9756C16.8454 16.9756 16.7798 16.9756 16.7143 16.9865C15.6328 17.0521 14.4639 17.1504 13.3277 17.3907C8.2916 18.4504 3.81261 22.3176 2.42521 26.7966C1.82437 28.7302 1.38739 30.7621 0.928571 32.9033C0.710084 33.8974 0.491597 34.9134 0.25126 35.9621L0 37.0437H39L38.7706 35.984ZM2.1958 35.2958C2.34874 34.6075 2.49076 33.9302 2.63277 33.2747C3.0916 31.1663 3.51765 29.1672 4.09664 27.31C5.29832 23.41 9.24202 20.0235 13.6882 19.0949C14.7151 18.8764 15.8076 18.789 16.8235 18.7235C16.8563 18.7235 16.8891 18.7235 16.9109 18.7235C17.1622 18.7235 17.2824 18.8 17.3042 18.8218C17.3042 18.8327 17.3151 18.8655 17.2824 18.942C16.9109 20.0672 16.5286 21.2361 16.1244 22.4487L16.0916 22.5361C15.5563 24.1529 15.0101 25.8134 14.4311 27.5722C14.3 27.9873 14.3218 28.5663 14.6933 28.9268C15.7639 29.9756 16.8563 31.0243 18.0143 32.1386L19.4563 33.5151L20.0571 33.0126C20.1008 32.9798 20.1445 32.947 20.1773 32.9142C20.2647 32.8378 20.3521 32.7722 20.4504 32.6848C20.8 32.3462 21.1605 32.0075 21.4992 31.6798L21.6084 31.5705C22.5151 30.7075 23.3672 29.8882 24.2193 29.0798C24.6782 28.6537 24.8092 28.1294 24.6017 27.5285C23.7168 24.8848 22.7992 22.1537 21.7395 18.9201C21.7286 18.8764 21.7286 18.8546 21.7286 18.8546C21.7504 18.8218 21.8815 18.7235 22.1874 18.7235C22.7664 18.7235 23.2252 18.7563 23.6513 18.8C28.8403 19.3899 33.2866 22.7109 34.9689 27.2773C35.1328 27.7361 35.2748 28.2386 35.4168 28.8613C35.7882 30.5546 36.1706 32.3134 36.5748 34.1815L36.8151 35.3067H2.1958V35.2958Z" fill="white"/>
<path d="M24.5833 2.11152C23.2259 0.754116 21.4261 0 19.5056 0C17.5952 0 15.7954 0.744061 14.4279 2.10147C13.0605 3.45888 12.3164 5.2587 12.3164 7.17918C12.3164 11.1308 15.5239 14.3584 19.4754 14.3684H19.4855C21.3959 14.3684 23.1957 13.6244 24.5531 12.277C25.9206 10.9196 26.6747 9.11977 26.6847 7.20935C26.6948 5.28887 25.9407 3.47899 24.5833 2.11152ZM23.427 11.1307C22.3712 12.1765 20.9736 12.7596 19.4855 12.7596H19.4654C16.4087 12.7496 13.9151 10.2459 13.9151 7.17918C13.9151 5.70112 14.4983 4.30349 15.5541 3.24773C16.6299 2.19196 18.0275 1.60878 19.5056 1.60878V1.40768L19.5156 1.60878C20.9937 1.60878 22.3913 2.19196 23.4471 3.24773C24.5028 4.30349 25.086 5.71117 25.076 7.19929C25.076 8.68741 24.4928 10.075 23.427 11.1307Z" fill="white"/>
</svg>
