<svg width="128" height="63" viewBox="0 0 128 63" fill="none" xmlns="http://www.w3.org/2000/svg">
<g filter="url(#filter0_d_351_88)">
<rect x="5.5" y="2.5" width="119" height="35" rx="17.5" fill="#FFF7B1"/>
<rect x="5.5" y="2.5" width="119" height="35" rx="17.5" stroke="#6F6F6F"/>
<path d="M35.094 15.242V16.278H30.852V19.568H34.296V20.604H30.852V25H29.578V15.242H35.094ZM38.4067 18.574C38.6307 18.1353 38.948 17.7947 39.3587 17.552C39.7787 17.3093 40.2874 17.188 40.8847 17.188V18.504H40.5487C39.1207 18.504 38.4067 19.2787 38.4067 20.828V25H37.1327V17.328H38.4067V18.574ZM46.2013 25.126C45.4827 25.126 44.8293 24.9627 44.2413 24.636C43.6627 24.3093 43.2053 23.8473 42.8693 23.25C42.5427 22.6433 42.3793 21.9433 42.3793 21.15C42.3793 20.366 42.5473 19.6753 42.8833 19.078C43.2287 18.4713 43.6953 18.0093 44.2833 17.692C44.8713 17.3653 45.5293 17.202 46.2573 17.202C46.9853 17.202 47.6433 17.3653 48.2313 17.692C48.8193 18.0093 49.2813 18.4667 49.6173 19.064C49.9627 19.6613 50.1353 20.3567 50.1353 21.15C50.1353 21.9433 49.958 22.6433 49.6033 23.25C49.258 23.8473 48.7867 24.3093 48.1893 24.636C47.592 24.9627 46.9293 25.126 46.2013 25.126ZM46.2013 24.006C46.6587 24.006 47.088 23.8987 47.4893 23.684C47.8907 23.4693 48.2127 23.1473 48.4553 22.718C48.7073 22.2887 48.8333 21.766 48.8333 21.15C48.8333 20.534 48.712 20.0113 48.4693 19.582C48.2267 19.1527 47.9093 18.8353 47.5173 18.63C47.1253 18.4153 46.7007 18.308 46.2433 18.308C45.7767 18.308 45.3473 18.4153 44.9553 18.63C44.5727 18.8353 44.2647 19.1527 44.0313 19.582C43.798 20.0113 43.6813 20.534 43.6813 21.15C43.6813 21.7753 43.7933 22.3027 44.0173 22.732C44.2507 23.1613 44.5587 23.4833 44.9413 23.698C45.324 23.9033 45.744 24.006 46.2013 24.006ZM56.0484 17.188C56.9818 17.188 57.7378 17.4727 58.3164 18.042C58.8951 18.602 59.1844 19.414 59.1844 20.478V25H57.9244V20.66C57.9244 19.8947 57.7331 19.3113 57.3504 18.91C56.9678 18.4993 56.4451 18.294 55.7824 18.294C55.1104 18.294 54.5738 18.504 54.1724 18.924C53.7804 19.344 53.5844 19.9553 53.5844 20.758V25H52.3104V17.328H53.5844V18.42C53.8364 18.028 54.1771 17.7247 54.6064 17.51C55.0451 17.2953 55.5258 17.188 56.0484 17.188ZM63.3195 18.378V22.9C63.3195 23.2733 63.3988 23.5393 63.5575 23.698C63.7162 23.8473 63.9915 23.922 64.3835 23.922H65.3215V25H64.1735C63.4642 25 62.9322 24.8367 62.5775 24.51C62.2228 24.1833 62.0455 23.6467 62.0455 22.9V18.378H61.0515V17.328H62.0455V15.396H63.3195V17.328H65.3215V18.378H63.3195ZM72.6851 19.33V20.408H67.0991V19.33H72.6851ZM76.85 16.278V19.54H80.406V20.59H76.85V23.95H80.826V25H75.576V15.228H80.826V16.278H76.85ZM86.9918 17.188C87.9251 17.188 88.6811 17.4727 89.2598 18.042C89.8384 18.602 90.1278 19.414 90.1278 20.478V25H88.8678V20.66C88.8678 19.8947 88.6764 19.3113 88.2938 18.91C87.9111 18.4993 87.3884 18.294 86.7258 18.294C86.0538 18.294 85.5171 18.504 85.1158 18.924C84.7238 19.344 84.5278 19.9553 84.5278 20.758V25H83.2538V17.328H84.5278V18.42C84.7798 18.028 85.1204 17.7247 85.5498 17.51C85.9884 17.2953 86.4691 17.188 86.9918 17.188ZM92.2329 21.136C92.2329 20.352 92.3915 19.666 92.7089 19.078C93.0262 18.4807 93.4602 18.0187 94.0109 17.692C94.5709 17.3653 95.1962 17.202 95.8869 17.202C96.4842 17.202 97.0395 17.342 97.5529 17.622C98.0662 17.8927 98.4582 18.252 98.7289 18.7V14.64H100.017V25H98.7289V23.558C98.4769 24.0153 98.1035 24.3933 97.6089 24.692C97.1142 24.9813 96.5355 25.126 95.8729 25.126C95.1915 25.126 94.5709 24.958 94.0109 24.622C93.4602 24.286 93.0262 23.8147 92.7089 23.208C92.3915 22.6013 92.2329 21.9107 92.2329 21.136ZM98.7289 21.15C98.7289 20.5713 98.6122 20.0673 98.3789 19.638C98.1455 19.2087 97.8282 18.882 97.4269 18.658C97.0349 18.4247 96.6009 18.308 96.1249 18.308C95.6489 18.308 95.2149 18.42 94.8229 18.644C94.4309 18.868 94.1182 19.1947 93.8849 19.624C93.6515 20.0533 93.5349 20.5573 93.5349 21.136C93.5349 21.724 93.6515 22.2373 93.8849 22.676C94.1182 23.1053 94.4309 23.4367 94.8229 23.67C95.2149 23.894 95.6489 24.006 96.1249 24.006C96.6009 24.006 97.0349 23.894 97.4269 23.67C97.8282 23.4367 98.1455 23.1053 98.3789 22.676C98.6122 22.2373 98.7289 21.7287 98.7289 21.15Z" fill="black"/>
<path d="M102.317 49.1872L96.1666 49.943L93.2459 55.4087L92.1744 44.1221L102.317 49.1872Z" fill="#33FF00" stroke="black" stroke-width="0.8" stroke-miterlimit="10"/>
</g>
<defs>
<filter id="filter0_d_351_88" x="0" y="0" width="128" height="62.7679" filterUnits="userSpaceOnUse" color-interpolation-filters="sRGB">
<feFlood flood-opacity="0" result="BackgroundImageFix"/>
<feColorMatrix in="SourceAlpha" type="matrix" values="0 0 0 0 0 0 0 0 0 0 0 0 0 0 0 0 0 0 127 0" result="hardAlpha"/>
<feOffset dx="-1" dy="2"/>
<feGaussianBlur stdDeviation="2"/>
<feComposite in2="hardAlpha" operator="out"/>
<feColorMatrix type="matrix" values="0 0 0 0 0 0 0 0 0 0 0 0 0 0 0 0 0 0 0.3 0"/>
<feBlend mode="normal" in2="BackgroundImageFix" result="effect1_dropShadow_351_88"/>
<feBlend mode="normal" in="SourceGraphic" in2="effect1_dropShadow_351_88" result="shape"/>
</filter>
</defs>
</svg>
