<svg width="161" height="57" viewBox="0 0 161 57" fill="none" xmlns="http://www.w3.org/2000/svg">
<g filter="url(#filter0_d_351_92)">
<rect x="28.5" y="2.5" width="119" height="35" rx="17.5" fill="#DEF5FF"/>
<rect x="28.5" y="2.5" width="119" height="35" rx="17.5" stroke="#6F6F6F"/>
<path d="M59.594 15.242V16.278H55.352V19.568H58.796V20.604H55.352V25H54.078V15.242H59.594ZM68.4367 17.328V25H67.1627V23.866C66.92 24.258 66.5794 24.566 66.1407 24.79C65.7114 25.0047 65.2354 25.112 64.7127 25.112C64.1154 25.112 63.5787 24.9907 63.1027 24.748C62.6267 24.496 62.2487 24.1227 61.9687 23.628C61.698 23.1333 61.5627 22.5313 61.5627 21.822V17.328H62.8227V21.654C62.8227 22.41 63.014 22.9933 63.3967 23.404C63.7794 23.8053 64.302 24.006 64.9647 24.006C65.646 24.006 66.1827 23.796 66.5747 23.376C66.9667 22.956 67.1627 22.3447 67.1627 21.542V17.328H68.4367ZM72.3618 14.64V25H71.0878V14.64H72.3618ZM76.3071 14.64V25H75.0331V14.64H76.3071ZM86.3048 25.098C85.6608 25.098 85.0821 24.986 84.5688 24.762C84.0648 24.5287 83.6681 24.2113 83.3788 23.81C83.0895 23.3993 82.9401 22.928 82.9308 22.396H84.2888C84.3355 22.8533 84.5221 23.2407 84.8488 23.558C85.1848 23.866 85.6701 24.02 86.3048 24.02C86.9115 24.02 87.3875 23.8707 87.7328 23.572C88.0875 23.264 88.2648 22.872 88.2648 22.396C88.2648 22.0227 88.1621 21.7193 87.9568 21.486C87.7515 21.2527 87.4948 21.0753 87.1868 20.954C86.8788 20.8327 86.4635 20.702 85.9408 20.562C85.2968 20.394 84.7788 20.226 84.3868 20.058C84.0041 19.89 83.6728 19.6287 83.3928 19.274C83.1221 18.91 82.9868 18.4247 82.9868 17.818C82.9868 17.286 83.1221 16.8147 83.3928 16.404C83.6635 15.9933 84.0415 15.676 84.5268 15.452C85.0215 15.228 85.5861 15.116 86.2208 15.116C87.1355 15.116 87.8821 15.3447 88.4608 15.802C89.0488 16.2593 89.3801 16.866 89.4548 17.622H88.0548C88.0081 17.2487 87.8121 16.922 87.4668 16.642C87.1215 16.3527 86.6641 16.208 86.0948 16.208C85.5628 16.208 85.1288 16.348 84.7928 16.628C84.4568 16.8987 84.2888 17.2813 84.2888 17.776C84.2888 18.1307 84.3868 18.42 84.5828 18.644C84.7881 18.868 85.0355 19.0407 85.3248 19.162C85.6235 19.274 86.0388 19.4047 86.5708 19.554C87.2148 19.7313 87.7328 19.9087 88.1248 20.086C88.5168 20.254 88.8528 20.52 89.1328 20.884C89.4128 21.2387 89.5528 21.724 89.5528 22.34C89.5528 22.816 89.4268 23.264 89.1748 23.684C88.9228 24.104 88.5495 24.4447 88.0548 24.706C87.5601 24.9673 86.9768 25.098 86.3048 25.098ZM93.4816 18.378V22.9C93.4816 23.2733 93.5609 23.5393 93.7196 23.698C93.8783 23.8473 94.1536 23.922 94.5456 23.922H95.4836V25H94.3356C93.6263 25 93.0943 24.8367 92.7396 24.51C92.3849 24.1833 92.2076 23.6467 92.2076 22.9V18.378H91.2136V17.328H92.2076V15.396H93.4816V17.328H95.4836V18.378H93.4816ZM97.0512 21.136C97.0512 20.352 97.2099 19.666 97.5272 19.078C97.8446 18.4807 98.2786 18.0187 98.8292 17.692C99.3892 17.3653 100.01 17.202 100.691 17.202C101.363 17.202 101.947 17.3467 102.441 17.636C102.936 17.9253 103.305 18.2893 103.547 18.728V17.328H104.835V25H103.547V23.572C103.295 24.02 102.917 24.3933 102.413 24.692C101.919 24.9813 101.34 25.126 100.677 25.126C99.9959 25.126 99.3799 24.958 98.8292 24.622C98.2786 24.286 97.8446 23.8147 97.5272 23.208C97.2099 22.6013 97.0512 21.9107 97.0512 21.136ZM103.547 21.15C103.547 20.5713 103.431 20.0673 103.197 19.638C102.964 19.2087 102.647 18.882 102.245 18.658C101.853 18.4247 101.419 18.308 100.943 18.308C100.467 18.308 100.033 18.42 99.6412 18.644C99.2492 18.868 98.9366 19.1947 98.7032 19.624C98.4699 20.0533 98.3532 20.5573 98.3532 21.136C98.3532 21.724 98.4699 22.2373 98.7032 22.676C98.9366 23.1053 99.2492 23.4367 99.6412 23.67C100.033 23.894 100.467 24.006 100.943 24.006C101.419 24.006 101.853 23.894 102.245 23.67C102.647 23.4367 102.964 23.1053 103.197 22.676C103.431 22.2373 103.547 21.7287 103.547 21.15ZM107.012 21.15C107.012 20.3567 107.171 19.666 107.488 19.078C107.805 18.4807 108.244 18.0187 108.804 17.692C109.373 17.3653 110.022 17.202 110.75 17.202C111.693 17.202 112.467 17.4307 113.074 17.888C113.69 18.3453 114.096 18.98 114.292 19.792H112.92C112.789 19.3253 112.533 18.9567 112.15 18.686C111.777 18.4153 111.31 18.28 110.75 18.28C110.022 18.28 109.434 18.532 108.986 19.036C108.538 19.5307 108.314 20.2353 108.314 21.15C108.314 22.074 108.538 22.788 108.986 23.292C109.434 23.796 110.022 24.048 110.75 24.048C111.31 24.048 111.777 23.9173 112.15 23.656C112.523 23.3947 112.78 23.0213 112.92 22.536H114.292C114.087 23.32 113.676 23.95 113.06 24.426C112.444 24.8927 111.674 25.126 110.75 25.126C110.022 25.126 109.373 24.9627 108.804 24.636C108.244 24.3093 107.805 23.8473 107.488 23.25C107.171 22.6527 107.012 21.9527 107.012 21.15ZM120.776 25L117.766 21.612V25H116.492V14.64H117.766V20.73L120.72 17.328H122.498L118.886 21.15L122.512 25H120.776Z" fill="black"/>
<path d="M155.788 41.0102L149.88 42.8801L148.01 48.7884L144.889 37.8891L155.788 41.0102Z" fill="#33FF00" stroke="black" stroke-width="0.8" stroke-miterlimit="10"/>
<path d="M18.728 15.888L17.744 20.496H21.32V21.456H17.528L16.352 27H15.296L16.472 21.456H10.808L9.632 27H8.576L9.752 21.456H5.912V20.496H9.968L10.952 15.888H7.16V14.928H11.144L12.368 9.24H13.424L12.2 14.928H17.864L19.088 9.24H20.144L18.92 14.928H22.568V15.888H18.728ZM17.672 15.888H12.008L11.024 20.496H16.688L17.672 15.888Z" fill="black" fill-opacity="0.6"/>
</g>
<defs>
<filter id="filter0_d_351_92" x="0.912109" y="0" width="159.262" height="56.1745" filterUnits="userSpaceOnUse" color-interpolation-filters="sRGB">
<feFlood flood-opacity="0" result="BackgroundImageFix"/>
<feColorMatrix in="SourceAlpha" type="matrix" values="0 0 0 0 0 0 0 0 0 0 0 0 0 0 0 0 0 0 127 0" result="hardAlpha"/>
<feOffset dx="-1" dy="2"/>
<feGaussianBlur stdDeviation="2"/>
<feComposite in2="hardAlpha" operator="out"/>
<feColorMatrix type="matrix" values="0 0 0 0 0 0 0 0 0 0 0 0 0 0 0 0 0 0 0.3 0"/>
<feBlend mode="normal" in2="BackgroundImageFix" result="effect1_dropShadow_351_92"/>
<feBlend mode="normal" in="SourceGraphic" in2="effect1_dropShadow_351_92" result="shape"/>
</filter>
</defs>
</svg>
