<svg width="18" height="16" viewBox="0 0 18 16" fill="none" xmlns="http://www.w3.org/2000/svg">
<path d="M4.1545 4.60277V16H0.349297V4.60277H4.1545ZM4.1545 1.93728C4.17062 2.18453 4.1366 2.43249 4.05446 2.66626C3.97233 2.90002 3.84378 3.11477 3.67655 3.2976C3.26408 3.66905 2.72397 3.86665 2.16918 3.84908C1.89977 3.85886 1.6311 3.81516 1.37869 3.7205C1.12627 3.62585 0.895111 3.48211 0.698567 3.2976C0.479484 3.12448 0.302717 2.90374 0.181682 2.65211C0.0606459 2.40048 -0.00147743 2.12459 2.66745e-05 1.84537C0.00584274 1.60397 0.0591631 1.36608 0.156942 1.14529C0.25472 0.924495 0.395041 0.725132 0.569888 0.558586C0.775364 0.370721 1.01593 0.225294 1.27776 0.130656C1.53959 0.0360168 1.81754 -0.00596971 2.09565 0.0071067C2.38309 -0.0168377 2.67235 0.0198813 2.94469 0.114884C3.21703 0.209887 3.46637 0.361053 3.67655 0.558586C3.99605 0.909709 4.16732 1.37082 4.1545 1.84537V1.93728ZM17.8128 9.8602V16H14.026V9.89697C14.026 9.30872 14.026 7.3234 12.1877 7.3234C10.3495 7.3234 10.2208 9.19843 10.2208 9.63961V16H6.63616C6.63616 12.9301 6.63616 10.4852 6.63616 8.64695V4.60277H10.2208V6.88221H10.0002C10.0898 6.58656 10.2471 6.3159 10.4597 6.09176C10.6375 5.88998 10.8278 5.69965 11.0296 5.5219C11.3205 5.30124 11.6513 5.13895 12.0039 5.04395C12.4215 4.92 12.8551 4.85807 13.2907 4.86012C13.8679 4.83821 14.443 4.94193 14.9762 5.1641C15.5095 5.38627 15.9881 5.7216 16.379 6.14691C17.2699 7.18282 17.7763 8.49433 17.8128 9.8602Z" fill="white" fill-opacity="0.65"/>
</svg>
