<svg width="12" height="18" viewBox="0 0 12 18" fill="none" xmlns="http://www.w3.org/2000/svg">
<path d="M6.33009 16.91L6.05593 16.5132C5.84972 16.2144 1 9.16137 1 6.33009C1 3.39121 3.39121 1 6.33009 1C9.26898 1 11.6602 3.39121 11.6602 6.33009C11.6602 9.16137 6.81047 16.2144 6.60426 16.5132L6.33009 16.91ZM6.33009 1.66626C3.75832 1.66626 1.66626 3.75832 1.66626 6.33009C1.66626 8.59105 5.29239 14.177 6.33009 15.7291C7.3678 14.177 10.9939 8.59105 10.9939 6.33009C10.9939 3.75832 8.90187 1.66626 6.33009 1.66626Z" fill="white" fill-opacity="0.5"/>
<path d="M6.28896 16.9384L6.33009 16.998L6.37123 16.9384L6.6454 16.5417L6.64541 16.5416C6.7488 16.3918 8.01369 14.5525 9.2529 12.3963C9.87248 11.3182 10.4862 10.1599 10.9451 9.0934C11.4033 8.02872 11.7102 7.04892 11.7102 6.33009C11.7102 3.3636 9.29659 0.95 6.33009 0.95C3.3636 0.95 0.95 3.3636 0.95 6.33009C0.95 7.04892 1.2569 8.02872 1.71506 9.0934C2.17401 10.1599 2.78771 11.3182 3.40729 12.3963C4.6465 14.5525 5.91139 16.3918 6.01478 16.5416L6.01479 16.5417L6.28896 16.9384ZM1.71626 6.33009C1.71626 3.78594 3.78594 1.71626 6.33009 1.71626C8.87425 1.71626 10.9439 3.78594 10.9439 6.33009C10.9439 6.88488 10.7207 7.6502 10.3649 8.51525C10.0097 9.37865 9.52505 10.3355 9.0074 11.2712C7.99895 13.0941 6.86732 14.8333 6.33009 15.639C5.79286 14.8333 4.66124 13.0941 3.65279 11.2712C3.13514 10.3355 2.65044 9.37865 2.2953 8.51525C1.93948 7.6502 1.71626 6.88488 1.71626 6.33009Z" stroke="white" stroke-opacity="0.5" stroke-width="0.1"/>
<path d="M6.33192 8.66188C5.04636 8.66188 4 7.61585 4 6.32996C4 5.04408 5.04636 3.99805 6.33192 3.99805C7.61747 3.99805 8.66383 5.04408 8.66383 6.32996C8.66383 7.61585 7.61747 8.66188 6.33192 8.66188ZM6.33192 4.66431C5.41347 4.66431 4.66626 5.41152 4.66626 6.32996C4.66626 7.2484 5.41347 7.99562 6.33192 7.99562C7.25036 7.99562 7.99757 7.2484 7.99757 6.32996C7.99757 5.41152 7.25036 4.66431 6.33192 4.66431Z" fill="white" fill-opacity="0.5"/>
<path d="M3.95 6.32996C3.95 7.64347 5.01875 8.71188 6.33192 8.71188C7.64508 8.71188 8.71383 7.64347 8.71383 6.32996C8.71383 5.01646 7.64508 3.94805 6.33192 3.94805C5.01875 3.94805 3.95 5.01646 3.95 6.32996ZM4.71626 6.32996C4.71626 5.43914 5.44109 4.71431 6.33192 4.71431C7.22274 4.71431 7.94757 5.43914 7.94757 6.32996C7.94757 7.22079 7.22274 7.94562 6.33192 7.94562C5.44109 7.94562 4.71626 7.22079 4.71626 6.32996Z" stroke="white" stroke-opacity="0.5" stroke-width="0.1"/>
</svg>
