<svg width="14" height="14" viewBox="0 0 14 14" fill="none" xmlns="http://www.w3.org/2000/svg">
<path fill-rule="evenodd" clip-rule="evenodd" d="M3.30658 10.7074C3.3041 10.705 3.30164 10.7026 3.29921 10.7002C1.02994 8.43122 -0.194046 5.79673 0.0251451 3.6531C0.0874207 3.0015 0.298757 2.37295 0.642806 1.81609C0.986855 1.25923 1.45439 0.788974 2.00926 0.441706C2.65004 0.0219152 3.23564 -0.100124 3.74839 0.0818853C4.63415 0.394929 5.05304 1.49718 5.37598 2.50618C5.53693 3.00469 5.55685 3.53801 5.43355 4.04715C5.31025 4.55629 5.04852 5.0214 4.67732 5.39104L4.50011 5.56855C4.52158 5.79898 4.69447 6.57883 6.03051 7.92079C6.03916 7.92821 6.04755 7.93596 6.05565 7.94404C7.39478 9.28347 8.17859 9.47178 8.43646 9.49367L8.60917 9.32095C8.97894 8.94996 9.44406 8.68837 9.95315 8.56508C10.4622 8.44179 10.9955 8.46159 11.494 8.6223C12.503 8.94554 13.6053 9.36413 13.9183 10.2499C14.1003 10.7641 13.9783 11.3497 13.5585 11.989C13.2161 12.5225 12.7655 12.9781 12.2359 13.3264C12.1631 13.3728 12.0784 13.3972 11.9921 13.3968C11.8949 13.3969 11.8003 13.3656 11.7224 13.3074C11.6446 13.2493 11.5876 13.1674 11.5602 13.0742C11.5327 12.981 11.5361 12.8814 11.57 12.7903C11.6039 12.6992 11.6663 12.6216 11.748 12.5689C12.1718 12.2897 12.5322 11.9246 12.8059 11.4973C13.0646 11.1042 13.1534 10.786 13.0703 10.5509C12.9015 10.073 11.9927 9.72785 11.22 9.48047C10.8788 9.37 10.5137 9.35616 10.1651 9.44047C9.81655 9.52478 9.49813 9.70395 9.24515 9.95814L8.9525 10.2511C8.90009 10.3036 8.8355 10.3423 8.76449 10.3638C8.56391 10.4237 7.46455 10.6223 5.42939 8.59094C5.42562 8.58754 5.42191 8.58408 5.41825 8.58055C3.37687 6.53946 3.57537 5.43631 3.63564 5.23601C3.65696 5.16492 3.69572 5.10029 3.74839 5.04801L4.04134 4.75505C4.29533 4.50201 4.47437 4.18364 4.55867 3.83517C4.64297 3.4867 4.62924 3.1217 4.519 2.78054C4.27163 2.00752 3.9265 1.09868 3.44884 0.929862C3.21345 0.846804 2.89501 0.935559 2.50221 1.19403C2.05812 1.46695 1.6838 1.83967 1.40897 2.28257C1.13413 2.72548 0.96637 3.22637 0.918999 3.74546C0.727718 5.61351 1.84314 7.96237 3.9041 10.0348C3.91498 10.0441 3.92543 10.054 3.9354 10.0643C5.92581 12.055 8.21427 13.1863 10.0494 13.0952C10.1085 13.0914 10.1679 13.0995 10.2238 13.119C10.2798 13.1385 10.3313 13.169 10.3753 13.2087C10.4193 13.2485 10.4549 13.2966 10.48 13.3504C10.5051 13.4041 10.5191 13.4623 10.5213 13.5216C10.5274 13.6407 10.4858 13.7573 10.4059 13.8458C10.3259 13.9344 10.2141 13.9875 10.0949 13.9935C10.0077 13.9977 9.91952 14.0001 9.83106 14.0001C7.77462 14.0001 5.41391 12.8124 3.30658 10.7074Z" fill="white" fill-opacity="0.5"/>
</svg>
