<svg width="26" height="28" viewBox="0 0 26 28" fill="none" xmlns="http://www.w3.org/2000/svg">
<path d="M4.21361 13.1821C4.09516 12.9649 3.85826 12.8781 3.66085 13.0084C3.46344 13.1387 3.38447 13.3993 3.50292 13.6165C3.62137 13.8337 3.73982 14.0943 3.85826 14.3115C3.93723 14.4418 4.05568 14.5287 4.21361 14.5287C4.29258 14.5287 4.33206 14.5287 4.41103 14.4853C4.60844 14.355 4.64792 14.0943 4.56896 13.8771C4.45051 13.6165 4.33206 13.3993 4.21361 13.1821ZM22.2178 25.8228L21.3492 26.7784C21.1518 26.9956 20.9544 27.0825 20.7175 26.9956C14.4397 25.2581 9.03053 21.1314 5.43758 15.3541C5.31913 15.1369 5.08224 15.0934 4.88482 15.2237C4.68741 15.3541 4.64792 15.6147 4.76637 15.8319C8.43829 21.8264 14.0449 26.0834 20.5201 27.8644C20.6385 27.9078 20.757 27.9078 20.8754 27.9078C21.2702 27.9078 21.6256 27.7341 21.9415 27.3866L22.8101 26.4309C22.968 26.2572 22.968 25.9965 22.8101 25.8228C22.6521 25.649 22.3758 25.649 22.2178 25.8228Z" fill="white"/>
<path d="M24.9415 21.6522L20.8352 17.1346C20.5588 16.8305 20.164 16.6567 19.7297 16.6567C19.2954 16.6567 18.94 16.8305 18.6242 17.1346L15.7419 20.349C15.505 20.6097 15.1497 20.6531 14.8733 20.4793C11.9516 18.6115 9.42465 15.8314 7.6874 12.5301C7.56895 12.2694 7.52947 11.8351 7.76637 11.5744L10.6486 8.35997C10.925 8.0559 11.0829 7.62151 11.0829 7.14369C11.0829 6.7093 10.925 6.27491 10.6486 5.9274L6.54239 1.45322C5.95015 0.801644 4.96307 0.801644 4.37083 1.45322L1.29116 4.798C0.975294 5.23239 0.817362 5.75365 0.935811 6.31835C1.37012 8.22965 1.96237 10.141 2.71254 11.8785C2.83099 12.1391 3.06789 12.226 3.26531 12.1391C3.46272 12.0523 3.54169 11.7916 3.46272 11.5744C2.71254 9.83688 2.15978 8.01246 1.72547 6.18804C1.6465 5.84053 1.80444 5.57989 1.8834 5.44958L4.92359 2.1048C5.19997 1.80073 5.71325 1.80073 5.98963 2.1048L10.0959 6.57898C10.2143 6.7093 10.2933 6.92649 10.2933 7.14369C10.2933 7.36088 10.2143 7.57807 10.0959 7.70839L7.2136 10.9663C6.70033 11.531 6.73981 12.3563 6.97671 12.921C8.79292 16.3961 11.3988 19.2631 14.518 21.2612C15.1102 21.6088 15.8604 21.4784 16.3342 20.9572L19.2164 17.7427C19.4928 17.4386 20.0061 17.4386 20.2825 17.7427L24.3887 22.2603C24.6651 22.5644 24.6651 23.1291 24.3887 23.4332L23.599 24.302C23.4411 24.4757 23.4411 24.7363 23.599 24.9101C23.678 24.997 23.7964 25.0404 23.8754 25.0404C23.9544 25.0404 24.0728 24.997 24.1518 24.9101L24.9415 24.0413C25.5337 23.3897 25.5337 22.3038 24.9415 21.6522Z" fill="white"/>
<path d="M5.23587 3.7124L6.5388 5.14587C6.61777 5.23275 6.73622 5.27619 6.81518 5.27619C6.89415 5.27619 7.0126 5.23275 7.09157 5.14587C7.2495 4.97212 7.2495 4.71149 7.09157 4.53773L5.74914 3.06082C5.47276 2.75675 4.95949 2.75675 4.72259 3.06082L3.38017 4.53773C3.22224 4.71149 3.22224 4.97212 3.38017 5.14587C3.5381 5.31963 3.775 5.31963 3.93293 5.14587L5.23587 3.7124ZM8.3945 7.01373C8.51295 7.01373 8.59192 6.9703 8.67088 6.88342C8.82881 6.70966 8.82881 6.44903 8.67088 6.27528L8.03916 5.58026C7.88122 5.4065 7.64433 5.4065 7.48639 5.58026C7.32846 5.75401 7.32846 6.01465 7.48639 6.1884L8.11812 6.88342C8.19709 6.9703 8.27605 7.01373 8.3945 7.01373ZM19.3313 25.7358H19.4497C19.6077 25.7358 19.7656 25.6055 19.8446 25.4317C19.9235 25.2145 19.8051 24.9539 19.5682 24.867C18.2258 24.3892 17.1597 23.9982 16.2516 23.5204C16.0542 23.4335 15.8173 23.5204 15.7383 23.7376C15.6594 23.9548 15.7383 24.2154 15.9357 24.3023C16.8833 24.8236 17.9494 25.258 19.3313 25.7358Z" fill="white"/>
</svg>
