<svg width="112" height="54" viewBox="0 0 112 54" fill="none" xmlns="http://www.w3.org/2000/svg">
<g filter="url(#filter0_d_351_84)">
<rect x="22.5" y="2.5" width="86" height="35" rx="17.5" fill="#DCFFC7"/>
<rect x="22.5" y="2.5" width="86" height="35" rx="17.5" stroke="#6F6F6F"/>
<path d="M47.602 18.098C47.602 18.91 47.322 19.5867 46.762 20.128C46.2113 20.66 45.3667 20.926 44.228 20.926H42.352V25H41.078V15.242H44.228C45.3293 15.242 46.1647 15.508 46.734 16.04C47.3127 16.572 47.602 17.258 47.602 18.098ZM44.228 19.876C44.9373 19.876 45.46 19.722 45.796 19.414C46.132 19.106 46.3 18.6673 46.3 18.098C46.3 16.894 45.6093 16.292 44.228 16.292H42.352V19.876H44.228ZM56.2934 17.328L51.6734 28.612H50.3574L51.8694 24.916L48.7754 17.328H50.1894L52.5974 23.544L54.9774 17.328H56.2934ZM59.6281 18.378V22.9C59.6281 23.2733 59.7074 23.5393 59.8661 23.698C60.0248 23.8473 60.3001 23.922 60.6921 23.922H61.6301V25H60.4821C59.7728 25 59.2408 24.8367 58.8861 24.51C58.5314 24.1833 58.3541 23.6467 58.3541 22.9V18.378H57.3601V17.328H58.3541V15.396H59.6281V17.328H61.6301V18.378H59.6281ZM67.4817 17.188C68.0604 17.188 68.583 17.314 69.0497 17.566C69.5164 17.8087 69.8804 18.1773 70.1417 18.672C70.4124 19.1667 70.5477 19.7687 70.5477 20.478V25H69.2877V20.66C69.2877 19.8947 69.0964 19.3113 68.7137 18.91C68.331 18.4993 67.8084 18.294 67.1457 18.294C66.4737 18.294 65.937 18.504 65.5357 18.924C65.1437 19.344 64.9477 19.9553 64.9477 20.758V25H63.6737V14.64H64.9477V18.42C65.1997 18.028 65.545 17.7247 65.9837 17.51C66.4317 17.2953 66.931 17.188 67.4817 17.188ZM76.4748 25.126C75.7561 25.126 75.1028 24.9627 74.5148 24.636C73.9361 24.3093 73.4788 23.8473 73.1428 23.25C72.8161 22.6433 72.6528 21.9433 72.6528 21.15C72.6528 20.366 72.8208 19.6753 73.1568 19.078C73.5021 18.4713 73.9688 18.0093 74.5568 17.692C75.1448 17.3653 75.8028 17.202 76.5308 17.202C77.2588 17.202 77.9168 17.3653 78.5048 17.692C79.0928 18.0093 79.5548 18.4667 79.8908 19.064C80.2361 19.6613 80.4088 20.3567 80.4088 21.15C80.4088 21.9433 80.2314 22.6433 79.8768 23.25C79.5314 23.8473 79.0601 24.3093 78.4628 24.636C77.8654 24.9627 77.2028 25.126 76.4748 25.126ZM76.4748 24.006C76.9321 24.006 77.3614 23.8987 77.7628 23.684C78.1641 23.4693 78.4861 23.1473 78.7288 22.718C78.9808 22.2887 79.1068 21.766 79.1068 21.15C79.1068 20.534 78.9854 20.0113 78.7428 19.582C78.5001 19.1527 78.1828 18.8353 77.7908 18.63C77.3988 18.4153 76.9741 18.308 76.5168 18.308C76.0501 18.308 75.6208 18.4153 75.2288 18.63C74.8461 18.8353 74.5381 19.1527 74.3048 19.582C74.0714 20.0113 73.9548 20.534 73.9548 21.15C73.9548 21.7753 74.0668 22.3027 74.2908 22.732C74.5241 23.1613 74.8321 23.4833 75.2148 23.698C75.5974 23.9033 76.0174 24.006 76.4748 24.006ZM86.3219 17.188C87.2552 17.188 88.0112 17.4727 88.5899 18.042C89.1685 18.602 89.4579 19.414 89.4579 20.478V25H88.1979V20.66C88.1979 19.8947 88.0065 19.3113 87.6239 18.91C87.2412 18.4993 86.7185 18.294 86.0559 18.294C85.3839 18.294 84.8472 18.504 84.4459 18.924C84.0539 19.344 83.8579 19.9553 83.8579 20.758V25H82.5839V17.328H83.8579V18.42C84.1099 18.028 84.4505 17.7247 84.8799 17.51C85.3185 17.2953 85.7992 17.188 86.3219 17.188Z" fill="black"/>
<path d="M14.7777 45.7884L12.9078 39.8801L6.99956 38.0102L17.8989 34.8891L14.7777 45.7884Z" fill="#33FF00" stroke="black" stroke-width="0.8" stroke-miterlimit="10"/>
</g>
<defs>
<filter id="filter0_d_351_84" x="0.613281" y="0" width="111.387" height="53.1745" filterUnits="userSpaceOnUse" color-interpolation-filters="sRGB">
<feFlood flood-opacity="0" result="BackgroundImageFix"/>
<feColorMatrix in="SourceAlpha" type="matrix" values="0 0 0 0 0 0 0 0 0 0 0 0 0 0 0 0 0 0 127 0" result="hardAlpha"/>
<feOffset dx="-1" dy="2"/>
<feGaussianBlur stdDeviation="2"/>
<feComposite in2="hardAlpha" operator="out"/>
<feColorMatrix type="matrix" values="0 0 0 0 0 0 0 0 0 0 0 0 0 0 0 0 0 0 0.3 0"/>
<feBlend mode="normal" in2="BackgroundImageFix" result="effect1_dropShadow_351_84"/>
<feBlend mode="normal" in="SourceGraphic" in2="effect1_dropShadow_351_84" result="shape"/>
</filter>
</defs>
</svg>
