<svg width="278" height="45" viewBox="0 0 278 45" fill="none" xmlns="http://www.w3.org/2000/svg">
<path d="M52.0783 4.89872L49.559 11.1691C49.559 11.1691 48.2993 15.3959 49.2231 18.6991C50.1468 22.0022 50.3707 20.2947 51.2665 18.6991L59.2444 5.12266C59.2444 5.12266 61.5398 0.783805 64.2551 0.671835C66.9983 0.559865 78.9792 0.671835 78.9792 0.671835L77.2716 2.49135L54.5976 41.0652C54.5976 41.0652 50.2588 46.6637 46.8437 42.4368C43.4286 38.2099 37.8301 28.4125 37.8301 28.4125L51.2945 4.89872H52.0783Z" fill="white" fill-opacity="0.65"/>
<path d="M11.8187 1.48346H5.66029C3.7288 1.7074 1.90928 2.8551 0.761585 4.45067C-0.833994 7.08197 0.537644 8.78952 0.761585 9.57331C0.985526 10.3571 19.6846 41.7368 19.6846 41.7368C19.6846 41.7368 24.8072 46.6355 28.2503 42.1847C28.9221 41.3449 37.012 27.6005 37.012 27.6005L52.324 1.23153H40.5671C40.5671 1.23153 35.7803 1.00759 33.9608 4.42268C32.1413 7.83777 24.6113 21.5261 24.6113 21.5261C24.6113 21.5261 24.0514 22.086 23.6875 21.5261L11.8187 1.48346Z" fill="white" fill-opacity="0.65"/>
<path d="M97.3606 11.6453C97.2486 11.7573 97.1366 11.9812 97.1366 12.0932C97.1366 12.2051 97.2486 12.2051 97.5845 12.2051C98.6202 12.0932 99.1801 12.0932 99.404 12.0932C102.819 11.9812 106.122 13.5768 108.194 16.2081C110.489 18.8394 111.609 22.2545 111.609 25.7816C111.497 29.1967 110.349 32.4998 108.194 35.1311C104.191 40.6177 97.9204 43.9208 91.2022 44.0328C89.6066 44.0328 88.0111 43.6969 86.5275 43.221C84.8199 42.6611 83.1124 41.7374 81.7407 40.5897C80.3691 39.442 79.6973 38.2943 79.6973 37.5105C79.6973 37.1746 79.8092 36.9506 80.0332 36.6987C80.2571 36.4748 80.4811 36.3628 80.845 36.3628C81.2928 36.3628 81.8807 36.8107 82.6645 37.6225C83.7002 38.8821 85.1838 39.9179 86.7794 40.4777C88.151 40.9256 89.5227 41.1495 91.0063 41.1495C93.4136 41.1495 95.793 40.4777 97.8644 39.218C100.16 37.8464 102.091 35.9149 103.351 33.5075C104.723 30.8762 105.394 27.909 105.394 24.9418C105.282 23.5702 104.947 22.1985 104.471 20.9388C103.911 19.3433 102.987 17.9716 101.727 16.9359C100.58 15.9002 99.0961 15.3403 97.5005 15.3403C96.3528 15.3403 95.0932 15.5643 94.0854 16.1521C93.5256 16.488 92.8258 16.712 92.1539 16.9639C91.7061 16.9639 91.4821 16.7399 91.4821 16.1521C91.4821 15.5922 91.7061 15.0044 92.1539 14.5565L97.5285 6.80255C97.7525 6.46664 97.8644 6.13073 97.8644 5.76683C97.8644 5.40292 97.6405 5.20697 97.3046 5.20697H88.5149C87.8431 5.31894 87.2553 5.65486 86.9193 6.2427C86.4715 6.91452 85.9956 7.27843 85.5477 7.27843C84.8759 7.27843 84.4 6.46664 84.4 4.98303C84.4 4.42318 84.4 3.72336 84.624 3.16351C84.7359 2.71563 84.8479 2.35172 84.8479 1.90384C84.8479 0.756142 85.5197 0.196289 86.7794 0.196289H103.967C105.45 0.196289 106.262 0.532201 106.262 1.12005C106.262 1.45596 106.15 1.6799 106.038 1.93183C105.478 2.37972 104.891 2.74362 104.219 2.96756C103.295 3.30347 102.511 3.89132 101.923 4.67511L97.3606 11.6453Z" fill="white" fill-opacity="0.65"/>
<path d="M128.514 2.5191V22.0299H127.031V2.5191H120.984V1.14746H134.337V2.5191H128.514Z" fill="white" fill-opacity="0.65"/>
<path d="M133.417 14.6122C133.305 16.3198 133.865 18.0273 134.789 19.3989C135.712 20.5466 137.196 21.2185 138.68 21.1065C140.499 21.1065 142.207 20.4347 143.578 19.287V20.6586C142.095 21.8063 140.275 22.3662 138.456 22.2542C136.636 22.3662 134.929 21.5824 133.781 20.2107C132.521 18.5032 131.849 16.4597 131.961 14.3883C131.849 12.3448 132.521 10.3853 133.781 8.9017C134.929 7.41809 136.748 6.60631 138.568 6.60631C140.275 6.49433 141.871 7.27813 142.906 8.5378C143.942 10.1334 144.502 11.9529 144.39 13.9124V14.4722L133.417 14.6122ZM142.99 13.3525C142.99 11.8689 142.654 10.4973 141.731 9.34959C140.919 8.42583 139.799 7.86597 138.54 7.97795C137.28 7.97795 136.02 8.42583 135.124 9.34959C134.089 10.4973 133.529 11.8689 133.417 13.3525H142.99Z" fill="white" fill-opacity="0.65"/>
<path d="M157.718 21.2186C156.458 21.8904 155.086 22.2543 153.715 22.2543C151.895 22.3663 150.076 21.5825 148.816 20.2109C147.556 18.7272 146.884 16.6838 146.996 14.7243C146.884 12.5689 147.668 10.4974 149.04 8.90184C150.412 7.41823 152.343 6.60645 154.414 6.60645C155.562 6.60645 156.71 6.83039 157.718 7.27827V8.76188C156.682 8.09005 155.422 7.72615 154.191 7.72615C152.595 7.61418 150.999 8.39797 149.852 9.65764C148.704 11.0293 148.144 12.7368 148.256 14.5563C148.144 16.2639 148.704 17.8595 149.74 19.2311C150.775 20.3788 152.147 21.0506 153.743 20.9387C155.114 20.9387 156.486 20.6028 157.634 19.791L157.718 21.2186Z" fill="white" fill-opacity="0.65"/>
<path d="M171.407 21.9182V13.0166C171.519 11.6449 171.183 10.2733 170.484 9.12559C169.672 8.20184 168.664 7.75395 167.516 7.86592C166.257 7.86592 164.997 8.42578 164.101 9.34953C163.066 10.4972 162.506 12.0928 162.618 13.6884V21.8902H161.246V0H162.618V9.93738C163.653 8.00589 165.585 6.85819 167.74 6.85819C169.112 6.74622 170.484 7.30607 171.379 8.45377C172.303 9.71344 172.863 11.309 172.751 12.9046V22.1422L171.407 21.9182Z" fill="white" fill-opacity="0.65"/>
<path d="M187.253 21.9185V13.2408C187.253 9.71375 185.993 7.86624 183.362 7.86624C181.99 7.86624 180.731 8.42609 179.835 9.46182C178.911 10.6095 178.351 11.9812 178.463 13.3528V21.9185H177.092V7.08244H178.463V9.82572C179.387 7.89423 181.431 6.63456 183.586 6.74653C184.958 6.63456 186.441 7.30638 187.225 8.34211C188.149 9.71375 188.597 11.3093 188.485 12.9049V22.0305L187.253 21.9185Z" fill="white" fill-opacity="0.65"/>
<path d="M199.117 22.3668C197.185 22.4787 195.226 21.695 193.994 20.2113C192.623 18.6158 191.951 16.6843 192.063 14.6128C191.951 12.4574 192.623 10.3859 194.106 8.79036C195.478 7.41872 197.409 6.63493 199.341 6.7469C201.272 6.63493 203.092 7.41872 204.352 8.79036C205.611 10.3859 206.283 12.4294 206.171 14.6128C206.283 16.6563 205.611 18.7277 204.24 20.3233C202.896 21.695 201.048 22.3668 199.117 22.3668ZM199.117 8.11854C197.521 8.00657 195.926 8.67839 194.89 9.82609C193.742 11.1977 193.183 13.0172 193.294 14.7248C193.183 16.4323 193.742 18.1399 194.778 19.3996C195.814 20.6592 197.409 21.2191 199.005 21.2191C200.601 21.331 202.084 20.6592 203.12 19.5115C204.156 18.1399 204.715 16.4323 204.603 14.6128C204.715 12.9053 204.156 11.1977 203.12 9.82609C202.196 8.67839 200.713 7.97858 199.117 8.11854Z" fill="white" fill-opacity="0.65"/>
<path d="M209.725 21.9182V0H211.096V22.0302C211.096 21.9182 209.725 21.9182 209.725 21.9182Z" fill="white" fill-opacity="0.65"/>
<path d="M221.818 22.3668C219.887 22.4787 217.927 21.695 216.695 20.2113C215.324 18.6158 214.764 16.6843 214.764 14.6128C214.652 12.4574 215.324 10.3859 216.807 8.79036C218.179 7.41872 220.111 6.63493 222.042 6.7469C223.974 6.63493 225.793 7.41872 227.053 8.79036C228.312 10.3859 228.984 12.4294 228.872 14.6128C228.984 16.6563 228.312 18.7277 226.941 20.2113C225.709 21.695 223.75 22.3668 221.818 22.3668ZM221.93 8.11854C220.334 8.00657 218.739 8.67839 217.703 9.82609C216.555 11.1977 215.996 13.0172 216.108 14.7248C215.996 16.4323 216.555 18.1399 217.591 19.3996C218.627 20.6592 220.223 21.2191 221.818 21.2191C223.414 21.331 225.009 20.7712 226.045 19.5115C227.081 18.1399 227.641 16.4323 227.529 14.6128C227.641 12.9053 227.081 11.1977 226.045 9.71412C225.009 8.67839 223.526 7.97858 221.93 8.11854Z" fill="white" fill-opacity="0.65"/>
<path d="M244.401 20.8821C244.401 23.7373 243.841 25.7808 242.581 27.0404C240.986 28.4121 238.942 29.1959 236.871 28.9719C235.275 28.9719 233.792 28.524 232.42 27.8242V26.3406C233.792 27.1524 235.275 27.6003 236.871 27.7123C240.986 27.7123 243.029 25.5568 243.029 21.218V19.2865C241.994 21.218 239.838 22.4776 237.655 22.3657C235.947 22.3657 234.24 21.6938 233.204 20.3222C231.944 18.7266 231.384 16.7951 231.496 14.7237C231.384 12.6802 232.056 10.4968 233.316 8.90123C234.576 7.41762 236.395 6.49386 238.327 6.60583C240.37 6.49386 242.218 7.52959 243.113 9.34911V7.05372H244.485L244.401 20.8821ZM243.029 12.7922C243.029 11.5325 242.581 10.2729 241.658 9.3771C240.734 8.45335 239.502 7.89349 238.131 7.89349C236.647 7.89349 235.163 8.56532 234.128 9.71301C233.092 11.0847 232.532 12.9042 232.644 14.6117C232.532 16.3193 232.98 18.0268 234.016 19.3985C234.939 20.5462 236.311 21.106 237.655 21.106C239.138 21.218 240.51 20.6581 241.546 19.5104C242.47 18.4747 243.029 17.1031 242.917 15.6195L243.029 12.7922Z" fill="white" fill-opacity="0.65"/>
<path d="M249.888 3.41551C249.552 3.41551 249.328 3.30354 249.076 3.0796C248.852 2.85566 248.74 2.63172 248.74 2.26781C248.74 1.9319 248.852 1.70796 249.076 1.45603C249.3 1.23209 249.524 1.12012 249.888 1.12012C250.224 1.12012 250.448 1.23209 250.7 1.45603C250.924 1.67997 251.036 1.90391 251.036 2.26781C251.036 2.60373 250.924 2.82767 250.7 3.0796C250.56 3.19157 250.224 3.41551 249.888 3.41551ZM249.3 21.9186V7.08254H250.672V21.9186H249.3Z" fill="white" fill-opacity="0.65"/>
<path d="M255.462 14.6122C255.35 16.3197 255.91 18.0273 256.833 19.3989C257.757 20.5466 259.241 21.2185 260.724 21.1065C262.544 21.1065 264.252 20.4347 265.623 19.287V20.6586C264.14 21.6943 262.32 22.3661 260.5 22.2542C258.681 22.3661 256.973 21.5824 255.826 20.2107C254.566 18.5032 253.894 16.4597 254.006 14.3883C253.894 12.3448 254.566 10.3853 255.826 8.9017C256.973 7.41809 258.793 6.60631 260.612 6.60631C262.32 6.49433 263.916 7.27813 264.839 8.5378C265.875 10.1334 266.435 11.9529 266.323 13.9124V14.4722L255.462 14.6122ZM265.175 13.3525C265.175 11.8689 264.839 10.4973 263.916 9.34958C263.104 8.42583 261.984 7.86597 260.724 7.97794C259.465 7.97794 258.205 8.42583 257.309 9.34958C256.274 10.4973 255.714 11.8689 255.602 13.3525H265.175Z" fill="white" fill-opacity="0.65"/>
<path d="M269.517 21.2183V19.6227C270.077 20.0706 270.665 20.4345 271.336 20.6584C271.896 20.8823 272.596 20.9943 273.156 20.9943C275.563 20.9943 276.683 20.0706 276.683 18.1391C276.683 17.4672 276.459 16.8794 275.871 16.4315C275.059 15.8717 274.276 15.2838 273.352 14.9479C272.204 14.5 271.196 13.9122 270.385 13.0164C269.825 12.3446 269.461 11.4208 269.461 10.6091C269.461 9.46136 269.909 8.31366 270.833 7.64184C271.868 6.83005 272.988 6.49414 274.248 6.49414C275.395 6.49414 276.543 6.71808 277.551 7.30593V8.78953C276.515 8.11771 275.395 7.75381 274.136 7.75381C273.212 7.75381 272.428 7.97775 271.728 8.56559C271.168 9.01348 270.805 9.82526 270.805 10.4971C270.805 11.0569 270.917 11.7568 271.364 12.2046C272.036 12.8765 272.96 13.3523 273.884 13.6882C275.031 14.1361 276.179 14.8359 277.075 15.6197C277.635 16.2916 277.999 17.1033 277.999 18.0271C277.999 19.1748 277.551 20.1825 276.627 20.9943C275.591 21.8061 274.22 22.254 272.988 22.142C271.896 22.3659 270.637 22.03 269.517 21.2183Z" fill="white" fill-opacity="0.65"/>
<path d="M125.076 40.0293C124.321 40.0293 123.649 39.8614 123.061 39.5254C122.473 39.1895 121.997 38.7137 121.633 38.0978C121.298 37.482 121.102 36.8102 121.102 36.0264C121.102 35.2426 121.27 34.5708 121.633 33.9549C121.969 33.3391 122.445 32.8632 123.061 32.5273C123.649 32.1914 124.349 32.0234 125.076 32.0234C125.944 32.0234 126.728 32.2474 127.372 32.6953C127.96 33.1151 128.408 33.675 128.688 34.3748H127.092C126.896 34.0109 126.616 33.703 126.28 33.535C125.916 33.3391 125.496 33.2271 125.049 33.2271C124.545 33.2271 124.097 33.3391 123.705 33.591C123.313 33.815 123.005 34.1509 122.781 34.5708C122.557 34.9907 122.445 35.4945 122.445 36.0544C122.445 36.6142 122.557 37.1181 122.781 37.538C123.005 37.9579 123.313 38.2938 123.705 38.5457C124.097 38.7696 124.545 38.9096 125.049 38.9096C125.524 38.9096 125.916 38.7976 126.28 38.6017C126.616 38.4057 126.896 38.1258 127.092 37.7339H128.688C128.408 38.4337 127.988 38.9936 127.372 39.4135C126.756 39.8054 125.972 40.0293 125.076 40.0293Z" fill="white" fill-opacity="0.65"/>
<path d="M133.286 40.0854C132.698 40.0854 132.166 39.9455 131.69 39.6935C131.214 39.4416 130.85 39.0497 130.57 38.5738C130.29 38.098 130.15 37.5381 130.15 36.8943C130.15 36.2505 130.29 35.6906 130.57 35.2147C130.85 34.7389 131.242 34.3749 131.718 34.095C132.194 33.8431 132.754 33.7031 133.342 33.7031C133.929 33.7031 134.489 33.8431 134.965 34.095C135.441 34.347 135.833 34.7389 136.113 35.2147C136.393 35.6906 136.533 36.2505 136.533 36.8943C136.533 37.5101 136.393 38.098 136.113 38.5738C135.833 39.0497 135.441 39.4416 134.965 39.6935C134.433 39.9455 133.873 40.0854 133.286 40.0854ZM133.286 34.8508C132.782 34.8508 132.362 35.0188 132.026 35.3827C131.69 35.7466 131.522 36.2505 131.522 36.8943C131.522 37.5381 131.69 38.042 132.026 38.4059C132.362 38.7698 132.782 38.9377 133.286 38.9377C133.593 38.9377 133.901 38.8538 134.181 38.7138C134.461 38.5458 134.685 38.3219 134.853 38.014C135.021 37.7061 135.105 37.3422 135.105 36.8943C135.105 36.2505 134.937 35.7466 134.573 35.3827C134.237 35.0188 133.789 34.8508 133.286 34.8508Z" fill="white" fill-opacity="0.65"/>
<path d="M147.074 39.9735V36.5584C147.074 36.0265 146.934 35.6066 146.654 35.2987C146.374 34.9908 145.982 34.8508 145.506 34.8508C145.03 34.8508 144.638 34.9908 144.358 35.2987C144.078 35.5786 143.938 36.0265 143.938 36.5584V39.9735H142.595V36.5584C142.595 36.0265 142.455 35.6066 142.175 35.2987C141.895 34.9908 141.503 34.8508 141.027 34.8508C140.551 34.8508 140.159 34.9908 139.851 35.2987C139.572 35.5786 139.432 36.0265 139.432 36.5584V39.9735H138.088V33.8151H139.432V34.8508L139.683 34.5149C139.879 34.263 140.131 34.067 140.439 33.9271C140.747 33.7871 141.083 33.7031 141.475 33.7031C141.951 33.7031 142.371 33.8151 142.763 34.011C143.127 34.207 143.434 34.4869 143.63 34.8788L143.742 35.1028L143.854 34.8788C144.05 34.5429 144.33 34.235 144.722 34.039C145.086 33.8151 145.506 33.7311 145.954 33.7311C146.71 33.7311 147.297 33.9551 147.773 34.4029C148.221 34.8508 148.445 35.4947 148.445 36.3344V39.9735H147.074Z" fill="white" fill-opacity="0.65"/>
<path d="M150.385 43.0253V33.7878H151.728V35.0194L151.98 34.6555C152.176 34.3756 152.456 34.1517 152.792 33.9557C153.128 33.7598 153.548 33.6758 153.996 33.6758C154.528 33.6758 155.004 33.8157 155.423 34.0677C155.843 34.3196 156.179 34.6835 156.431 35.1594C156.683 35.6353 156.795 36.1951 156.795 36.8389C156.795 37.4828 156.683 38.0426 156.431 38.5185C156.179 38.9944 155.843 39.3863 155.423 39.6382C155.004 39.8901 154.528 40.0301 153.996 40.0301C153.548 40.0301 153.156 39.9461 152.82 39.7502C152.484 39.5542 152.204 39.3303 151.98 39.0504L151.728 38.7144V43.0253H150.385ZM153.548 34.8515C153.24 34.8515 152.932 34.9354 152.652 35.1034C152.372 35.2714 152.148 35.4953 151.98 35.8032C151.812 36.1111 151.728 36.475 151.728 36.8949C151.728 37.3148 151.812 37.6787 151.98 37.9866C152.148 38.2946 152.372 38.5465 152.652 38.6865C152.932 38.8544 153.24 38.9384 153.548 38.9384C153.884 38.9384 154.192 38.8544 154.472 38.6865C154.752 38.5185 154.976 38.2666 155.144 37.9586C155.311 37.6507 155.395 37.2868 155.395 36.8669C155.395 36.447 155.311 36.0831 155.144 35.8032C154.976 35.4953 154.752 35.2714 154.472 35.1034C154.192 34.9354 153.884 34.8515 153.548 34.8515Z" fill="white" fill-opacity="0.65"/>
<path d="M160.736 40.0575C160.26 40.0575 159.84 39.9455 159.476 39.7495C159.113 39.5536 158.833 39.2457 158.609 38.8538C158.413 38.4619 158.301 37.986 158.301 37.4261V33.7871H159.644V37.2022C159.644 37.7341 159.784 38.1819 160.064 38.4899C160.344 38.7978 160.736 38.9377 161.212 38.9377C161.688 38.9377 162.08 38.7978 162.36 38.4899C162.64 38.1819 162.78 37.7621 162.78 37.2022V33.7871H164.151V39.9455H162.78V38.8538L162.528 39.1897C162.332 39.4416 162.08 39.6656 161.772 39.8055C161.464 39.9735 161.128 40.0575 160.736 40.0575Z" fill="white" fill-opacity="0.65"/>
<path d="M168.317 39.9737C167.03 39.9737 166.414 39.3578 166.414 38.1262V34.879H165.658V33.8153H166.414V32.2197H167.786V33.8153H169.213V34.879H167.786V38.1262C167.786 38.3781 167.842 38.574 167.982 38.686C168.122 38.798 168.317 38.882 168.597 38.882H169.213V39.9737H168.317Z" fill="white" fill-opacity="0.65"/>
<path d="M173.446 40.0854C172.859 40.0854 172.327 39.9455 171.851 39.6935C171.375 39.4416 171.011 39.0497 170.759 38.5738C170.507 38.098 170.367 37.5381 170.367 36.8943C170.367 36.2505 170.507 35.6906 170.759 35.2147C171.011 34.7389 171.375 34.3749 171.851 34.095C172.327 33.8431 172.859 33.7031 173.474 33.7031C174.062 33.7031 174.594 33.8431 175.042 34.095C175.49 34.347 175.854 34.7109 176.106 35.1587C176.358 35.6066 176.498 36.1665 176.498 36.7543C176.498 36.9223 176.498 37.0902 176.47 37.2302H171.711V37.3702C171.739 37.874 171.935 38.2659 172.243 38.5458C172.551 38.8258 172.943 38.9657 173.39 38.9657C174.006 38.9657 174.482 38.7138 174.762 38.1819H176.246C176.05 38.6858 175.742 39.1057 175.294 39.4696C174.818 39.8895 174.174 40.0854 173.446 40.0854ZM173.418 34.7668C172.97 34.7668 172.607 34.9068 172.299 35.1587C171.991 35.4107 171.823 35.8026 171.739 36.2505L171.711 36.4184H175.07V36.2784C175.07 35.8306 174.902 35.4387 174.566 35.1587C174.258 34.9068 173.866 34.7668 173.418 34.7668Z" fill="white" fill-opacity="0.65"/>
<path d="M178.072 39.9735V33.8151H179.416V35.1587L179.668 34.7389C179.864 34.4309 180.116 34.179 180.424 33.9831C180.704 33.8151 181.011 33.7311 181.375 33.7031V35.1307H181.095C180.564 35.1307 180.116 35.2707 179.836 35.5226C179.556 35.8026 179.388 36.2505 179.388 36.8663V39.9455L178.072 39.9735Z" fill="white" fill-opacity="0.65"/>
<path d="M187.498 39.9747V33.1724H185.314V32.1367H190.997V33.1724H188.842V39.9747H187.498Z" fill="white" fill-opacity="0.65"/>
<path d="M192.598 39.9735V33.8151H193.941V35.1587L194.193 34.7389C194.389 34.4309 194.641 34.179 194.949 33.9831C195.229 33.8151 195.537 33.7311 195.901 33.7031V35.1307H195.621C195.089 35.1307 194.641 35.2707 194.361 35.5226C194.081 35.8026 193.913 36.2505 193.913 36.8663V39.9455L192.598 39.9735Z" fill="white" fill-opacity="0.65"/>
<path d="M199.76 40.0854C199.256 40.0854 198.78 39.9455 198.36 39.6935C197.94 39.4416 197.604 39.0497 197.352 38.5738C197.1 38.098 196.988 37.5101 196.988 36.8943C196.988 36.2784 197.1 35.7186 197.352 35.2147C197.604 34.7389 197.94 34.3749 198.36 34.095C198.78 33.8431 199.256 33.7031 199.788 33.7031C200.235 33.7031 200.655 33.7871 200.991 33.9831C201.327 34.179 201.607 34.4029 201.803 34.6829L202.055 35.0188V33.8151H203.427V39.9735H202.055V38.7138L201.803 39.0777C201.607 39.3576 201.327 39.6096 200.991 39.7775C200.627 39.9735 200.207 40.0854 199.76 40.0854ZM200.179 34.8508C199.844 34.8508 199.536 34.9348 199.284 35.1028C199.004 35.2707 198.78 35.4947 198.612 35.8026C198.444 36.1105 198.36 36.4744 198.36 36.8663C198.36 37.2862 198.444 37.6501 198.612 37.958C198.78 38.2659 199.004 38.5179 199.284 38.6858C199.564 38.8538 199.872 38.9377 200.179 38.9377C200.515 38.9377 200.823 38.8538 201.103 38.6858C201.383 38.5179 201.607 38.2939 201.775 37.986C201.943 37.6781 202.027 37.3142 202.027 36.8943C202.027 36.4744 201.943 36.1105 201.775 35.8026C201.607 35.4947 201.383 35.2707 201.103 35.1028C200.823 34.9348 200.515 34.8508 200.179 34.8508Z" fill="white" fill-opacity="0.65"/>
<path d="M205.393 39.9739V33.8155H206.737V39.9739H205.393ZM206.065 32.7798C205.813 32.7798 205.617 32.6958 205.449 32.5559C205.281 32.3879 205.197 32.22 205.197 31.968C205.197 31.7441 205.281 31.5481 205.449 31.3802C205.617 31.2122 205.813 31.1562 206.065 31.1562C206.317 31.1562 206.513 31.2402 206.681 31.3802C206.849 31.5481 206.933 31.7161 206.933 31.968C206.933 32.192 206.849 32.3879 206.681 32.5559C206.541 32.6958 206.317 32.7798 206.065 32.7798Z" fill="white" fill-opacity="0.65"/>
<path d="M213.233 39.9735V36.5584C213.233 36.0265 213.093 35.5786 212.813 35.2707C212.534 34.9628 212.142 34.8228 211.666 34.8228C211.19 34.8228 210.798 34.9628 210.49 35.2707C210.21 35.5786 210.07 35.9985 210.07 36.5584V39.9735H208.727V33.8151H210.07V34.8788L210.322 34.5429C210.518 34.291 210.798 34.067 211.106 33.9271C211.414 33.7871 211.778 33.7031 212.17 33.7031C212.897 33.7031 213.485 33.9271 213.933 34.3749C214.381 34.8228 214.605 35.4667 214.605 36.3064V39.9455L213.233 39.9735Z" fill="white" fill-opacity="0.65"/>
<path d="M216.534 39.9739V33.8155H217.877V39.9739H216.534ZM217.206 32.7798C216.954 32.7798 216.758 32.6958 216.59 32.5559C216.422 32.3879 216.338 32.22 216.338 31.968C216.338 31.7441 216.422 31.5481 216.59 31.3802C216.758 31.2122 216.954 31.1562 217.206 31.1562C217.458 31.1562 217.654 31.2402 217.821 31.3802C217.989 31.5481 218.073 31.7161 218.073 31.968C218.073 32.192 217.989 32.3879 217.821 32.5559C217.682 32.6958 217.458 32.7798 217.206 32.7798Z" fill="white" fill-opacity="0.65"/>
<path d="M224.374 39.9735V36.5584C224.374 36.0265 224.234 35.5786 223.954 35.2707C223.674 34.9628 223.282 34.8228 222.806 34.8228C222.331 34.8228 221.939 34.9628 221.631 35.2707C221.351 35.5786 221.211 35.9985 221.211 36.5584V39.9735H219.867V33.8151H221.211V34.8788L221.463 34.5429C221.659 34.291 221.939 34.067 222.247 33.9271C222.554 33.7871 222.918 33.7031 223.31 33.7031C224.038 33.7031 224.626 33.9271 225.074 34.3749C225.522 34.8228 225.746 35.4667 225.746 36.3064V39.9455L224.374 39.9735Z" fill="white" fill-opacity="0.65"/>
<path d="M230.634 43.1369C229.767 43.1369 229.039 42.941 228.479 42.5211C227.975 42.1572 227.667 41.6533 227.555 41.0375H228.899C229.011 41.3174 229.207 41.5414 229.487 41.7093C229.795 41.9053 230.159 41.9893 230.579 41.9893C231.082 41.9893 231.502 41.8213 231.838 41.5134C232.146 41.2055 232.314 40.7296 232.314 40.1417V38.6861L232.062 39.05C231.866 39.33 231.586 39.5819 231.25 39.7498C230.914 39.9458 230.495 40.0298 230.047 40.0298C229.543 40.0298 229.067 39.8898 228.647 39.6379C228.227 39.3859 227.891 38.994 227.639 38.5182C227.387 38.0423 227.275 37.4545 227.275 36.8386C227.275 36.2228 227.387 35.6629 227.639 35.1591C227.891 34.6832 228.227 34.3193 228.647 34.0394C229.067 33.7874 229.543 33.6475 230.075 33.6475C230.523 33.6475 230.942 33.7314 231.278 33.9274C231.614 34.0953 231.894 34.3473 232.09 34.6272L232.342 34.9911V33.7594H233.714V40.1137C233.714 40.6736 233.602 41.2055 233.378 41.6533C233.154 42.1012 232.818 42.4371 232.342 42.7171C231.838 42.997 231.278 43.1369 230.634 43.1369ZM230.467 34.8511C230.131 34.8511 229.823 34.9351 229.571 35.1031C229.291 35.271 229.067 35.495 228.899 35.8029C228.731 36.1108 228.647 36.4747 228.647 36.8666C228.647 37.2865 228.731 37.6504 228.899 37.9583C229.067 38.2662 229.291 38.5182 229.571 38.6861C229.851 38.8541 230.159 38.9381 230.467 38.9381C230.802 38.9381 231.11 38.8541 231.39 38.6861C231.67 38.5182 231.894 38.2942 232.062 37.9863C232.23 37.6784 232.314 37.3145 232.314 36.8946C232.314 36.4747 232.23 36.1108 232.062 35.8029C231.894 35.495 231.67 35.271 231.39 35.1031C231.11 34.9351 230.802 34.8511 230.467 34.8511Z" fill="white" fill-opacity="0.65"/>
<path d="M242.11 40.0303C241.354 40.0303 240.682 39.8623 240.094 39.5264C239.506 39.1905 239.031 38.7146 238.667 38.0988C238.331 37.483 238.135 36.8111 238.135 36.0274C238.135 35.2436 238.303 34.5717 238.667 33.9559C239.003 33.3401 239.478 32.8642 240.094 32.5283C240.682 32.1924 241.382 32.0244 242.11 32.0244C242.977 32.0244 243.761 32.2484 244.405 32.6962C244.993 33.1161 245.441 33.676 245.721 34.3758H244.125C243.929 34.0119 243.649 33.704 243.313 33.536C242.949 33.3401 242.53 33.2281 242.082 33.2281C241.578 33.2281 241.13 33.3401 240.738 33.592C240.346 33.8159 240.038 34.1519 239.814 34.5717C239.59 34.9916 239.478 35.4955 239.478 36.0553C239.478 36.6152 239.59 37.1191 239.814 37.5389C240.038 37.9588 240.346 38.2948 240.738 38.5467C241.13 38.7706 241.578 38.9106 242.082 38.9106C242.558 38.9106 242.949 38.7986 243.313 38.6027C243.649 38.4067 243.929 38.1268 244.125 37.7349H245.721C245.441 38.4347 245.021 38.9946 244.405 39.4145C243.761 39.8064 243.005 40.0303 242.11 40.0303Z" fill="white" fill-opacity="0.65"/>
<path d="M250.263 40.0854C249.675 40.0854 249.143 39.9455 248.667 39.6935C248.191 39.4416 247.827 39.0497 247.575 38.5738C247.324 38.098 247.184 37.5381 247.184 36.8943C247.184 36.2505 247.324 35.6906 247.575 35.2147C247.827 34.7389 248.191 34.3749 248.667 34.095C249.143 33.8431 249.675 33.7031 250.291 33.7031C250.879 33.7031 251.41 33.8431 251.858 34.095C252.306 34.347 252.67 34.7109 252.922 35.1587C253.174 35.6066 253.314 36.1665 253.314 36.7543C253.314 36.9223 253.314 37.0902 253.286 37.2302H248.555V37.3702C248.583 37.874 248.779 38.2659 249.087 38.5458C249.395 38.8258 249.787 38.9657 250.235 38.9657C250.851 38.9657 251.327 38.7138 251.606 38.1819H253.09C252.894 38.6858 252.586 39.1057 252.138 39.4696C251.606 39.8895 250.991 40.0854 250.263 40.0854ZM250.207 34.7668C249.759 34.7668 249.395 34.9068 249.087 35.1587C248.779 35.4107 248.611 35.8026 248.527 36.2505L248.499 36.4184H251.858V36.2784C251.858 35.8306 251.69 35.4387 251.354 35.1587C251.075 34.9068 250.683 34.7668 250.207 34.7668Z" fill="white" fill-opacity="0.65"/>
<path d="M259.394 39.9735V36.5584C259.394 36.0265 259.254 35.5786 258.974 35.2707C258.694 34.9628 258.302 34.8228 257.826 34.8228C257.35 34.8228 256.958 34.9628 256.65 35.2707C256.37 35.5786 256.23 35.9985 256.23 36.5584V39.9735H254.887V33.8151H256.23V34.8788L256.482 34.5429C256.678 34.291 256.958 34.067 257.266 33.9271C257.574 33.7871 257.938 33.7031 258.33 33.7031C259.058 33.7031 259.645 33.9271 260.093 34.3749C260.541 34.8228 260.765 35.4667 260.765 36.3064V39.9455L259.394 39.9735Z" fill="white" fill-opacity="0.65"/>
<path d="M264.839 39.9737C263.551 39.9737 262.935 39.3578 262.935 38.1262V34.879H262.18V33.8153H262.935V32.2197H264.307V33.8153H265.735V34.879H264.307V38.1262C264.307 38.3781 264.363 38.574 264.503 38.686C264.643 38.798 264.839 38.882 265.119 38.882H265.735V39.9737H264.839Z" fill="white" fill-opacity="0.65"/>
<path d="M269.968 40.0854C269.38 40.0854 268.848 39.9455 268.372 39.6935C267.896 39.4416 267.533 39.0497 267.281 38.5738C267.029 38.098 266.889 37.5381 266.889 36.8943C266.889 36.2505 267.029 35.6906 267.281 35.2147C267.533 34.7389 267.896 34.3749 268.372 34.095C268.848 33.8431 269.38 33.7031 269.996 33.7031C270.584 33.7031 271.116 33.8431 271.563 34.095C272.011 34.347 272.375 34.7109 272.627 35.1587C272.879 35.6066 273.019 36.1665 273.019 36.7543C273.019 36.9223 273.019 37.0902 272.991 37.2302H268.26V37.3702C268.288 37.874 268.484 38.2659 268.792 38.5458C269.1 38.8258 269.492 38.9657 269.94 38.9657C270.556 38.9657 271.032 38.7138 271.311 38.1819H272.795C272.599 38.6858 272.291 39.1057 271.843 39.4696C271.312 39.8895 270.696 40.0854 269.968 40.0854ZM269.912 34.7668C269.464 34.7668 269.1 34.9068 268.792 35.1587C268.484 35.4107 268.316 35.8026 268.232 36.2505L268.204 36.4184H271.563V36.2784C271.563 35.8306 271.395 35.4387 271.06 35.1587C270.78 34.9068 270.36 34.7668 269.912 34.7668Z" fill="white" fill-opacity="0.65"/>
<path d="M274.59 39.9735V33.8151H275.933V35.1587L276.185 34.7389C276.381 34.4309 276.633 34.179 276.941 33.9831C277.221 33.8151 277.529 33.7311 277.893 33.7031V35.1307H277.613C277.081 35.1307 276.633 35.2707 276.353 35.5226C276.073 35.8026 275.905 36.2505 275.905 36.8663V39.9455L274.59 39.9735Z" fill="white" fill-opacity="0.65"/>
</svg>
