<svg width="220" height="35" viewBox="0 0 220 35" fill="none" xmlns="http://www.w3.org/2000/svg">
<path d="M41.2131 3.87662L39.2194 8.83877C39.2194 8.83877 38.2225 12.1838 38.9535 14.7978C39.6846 17.4118 39.8618 16.0605 40.5707 14.7978L46.8841 4.05384C46.8841 4.05384 48.7006 0.620202 50.8494 0.531593C53.0203 0.442983 62.5016 0.531593 62.5016 0.531593L61.1503 1.9715L43.2068 32.4976C43.2068 32.4976 39.7732 36.9281 37.0706 33.5831C34.368 30.2381 29.9375 22.4847 29.9375 22.4847L40.5928 3.87662H41.2131Z" fill="black"/>
<path d="M9.35292 1.17401H4.47938C2.95086 1.35123 1.51095 2.25948 0.602694 3.52217C-0.659996 5.6045 0.425475 6.9558 0.602694 7.57607C0.779914 8.19634 15.5778 33.0292 15.5778 33.0292C15.5778 33.0292 19.6317 36.9059 22.3564 33.3837C22.8881 32.7191 29.2901 21.8422 29.2901 21.8422L41.4075 0.974642H32.1035C32.1035 0.974642 28.3154 0.797422 26.8755 3.50002C25.4356 6.20262 19.4766 17.0352 19.4766 17.0352C19.4766 17.0352 19.0335 17.4782 18.7456 17.0352L9.35292 1.17401Z" fill="#E10000"/>
<path d="M29.3969 21.6429L41.4035 0.97464H32.0995C32.0995 0.97464 28.3114 0.79742 26.8715 3.50002C26.1848 4.78487 24.5012 7.88621 22.9062 10.7882L29.3969 21.6429Z" fill="black"/>
<path d="M77.0485 9.21535C76.9599 9.30396 76.8713 9.48118 76.8713 9.56979C76.8713 9.6584 76.9599 9.6584 77.2257 9.6584C78.0453 9.56979 78.4884 9.56979 78.6656 9.56979C81.3682 9.48118 83.9822 10.7439 85.6215 12.8262C87.438 14.9085 88.3241 17.6111 88.3241 20.4024C88.2354 23.105 87.3272 25.719 85.6215 27.8013C82.4537 32.1432 77.4915 34.7572 72.175 34.8458C70.9123 34.8458 69.6496 34.58 68.4755 34.2034C67.1242 33.7603 65.7729 33.0293 64.6874 32.121C63.602 31.2128 63.0703 30.3045 63.0703 29.6843C63.0703 29.4184 63.1589 29.2412 63.3361 29.0418C63.5134 28.8646 63.6906 28.776 63.9786 28.776C64.333 28.776 64.7982 29.1304 65.4185 29.7729C66.2381 30.7697 67.4122 31.5894 68.6749 32.0324C69.7603 32.3869 70.8458 32.5641 72.0199 32.5641C73.925 32.5641 75.808 32.0324 77.4472 31.0356C79.2637 29.9501 80.7922 28.4216 81.7891 26.5164C82.8746 24.4341 83.4062 22.0859 83.4062 19.7378C83.3176 18.6523 83.0518 17.5668 82.6752 16.57C82.2321 15.3073 81.5011 14.2218 80.5043 13.4022C79.596 12.5825 78.4219 12.1395 77.1592 12.1395C76.251 12.1395 75.2541 12.3167 74.4567 12.7819C74.0136 13.0477 73.4598 13.2249 72.9281 13.4243C72.5737 13.4243 72.3965 13.2471 72.3965 12.7819C72.3965 12.3388 72.5737 11.8736 72.9281 11.5192L77.1814 5.38297C77.3586 5.11714 77.4472 4.85131 77.4472 4.56332C77.4472 4.27534 77.27 4.12027 77.0042 4.12027H70.0483C69.5167 4.20888 69.0515 4.47471 68.7856 4.93992C68.4312 5.47158 68.0546 5.75956 67.7002 5.75956C67.1685 5.75956 66.7919 5.11714 66.7919 3.94305C66.7919 3.5 66.7919 2.94619 66.9691 2.50314C67.0577 2.1487 67.1464 1.86072 67.1464 1.50628C67.1464 0.598026 67.678 0.154976 68.6749 0.154976H82.2765C83.4505 0.154976 84.093 0.420806 84.093 0.886008C84.093 1.15184 84.0043 1.32906 83.9157 1.52843C83.4727 1.88287 83.0075 2.17085 82.4758 2.34807C81.7448 2.6139 81.1245 3.07911 80.6593 3.69938L77.0485 9.21535Z" fill="black"/>
<path d="M101.703 1.9937V17.434H100.529V1.9937H95.7441V0.908228H106.311V1.9937H101.703Z" fill="black"/>
<path d="M105.583 11.5636C105.495 12.9149 105.938 14.2662 106.669 15.3517C107.4 16.26 108.574 16.7916 109.748 16.703C111.188 16.703 112.539 16.1714 113.625 15.2631V16.3486C112.451 17.2568 111.011 17.6999 109.571 17.6113C108.131 17.6999 106.78 17.0796 105.871 15.9941C104.874 14.6428 104.343 13.0257 104.431 11.3864C104.343 9.76928 104.874 8.21861 105.871 7.04452C106.78 5.87044 108.219 5.22802 109.659 5.22802C111.011 5.13941 112.273 5.75968 113.093 6.75654C113.913 8.01923 114.356 9.45915 114.267 11.0098V11.4529L105.583 11.5636ZM113.159 10.5668C113.159 9.39269 112.894 8.30722 112.163 7.39896C111.52 6.66793 110.634 6.22488 109.637 6.31349C108.64 6.31349 107.644 6.66793 106.935 7.39896C106.115 8.30722 105.672 9.39269 105.583 10.5668H113.159Z" fill="black"/>
<path d="M124.814 16.7916C123.817 17.3233 122.732 17.6113 121.646 17.6113C120.207 17.6999 118.767 17.0796 117.77 15.9942C116.773 14.8201 116.241 13.2029 116.33 11.6523C116.241 9.94653 116.862 8.30724 117.947 7.04455C119.032 5.87047 120.561 5.22805 122.2 5.22805C123.109 5.22805 124.017 5.40527 124.814 5.75971V6.93379C123.995 6.40213 122.998 6.11415 122.023 6.11415C120.76 6.02554 119.498 6.64581 118.589 7.64267C117.681 8.72814 117.238 10.0794 117.327 11.5194C117.238 12.8707 117.681 14.1333 118.501 15.2188C119.32 16.1271 120.406 16.6587 121.669 16.5701C122.754 16.5701 123.84 16.3043 124.748 15.6619L124.814 16.7916Z" fill="black"/>
<path d="M135.647 17.3454V10.3009C135.735 9.21543 135.47 8.12996 134.916 7.22171C134.273 6.49067 133.476 6.13624 132.568 6.22484C131.571 6.22484 130.574 6.66789 129.865 7.39893C129.045 8.30718 128.602 9.56987 128.691 10.8326V17.3232H127.605V0H128.691V7.86413C129.511 6.33561 131.039 5.42736 132.745 5.42736C133.83 5.33875 134.916 5.7818 135.625 6.69005C136.356 7.68691 136.799 8.9496 136.71 10.2123V17.5226L135.647 17.3454Z" fill="black"/>
<path d="M148.188 17.3454V10.4781C148.188 7.68692 147.191 6.22486 145.109 6.22486C144.023 6.22486 143.026 6.66791 142.317 7.48755C141.586 8.3958 141.143 9.48128 141.232 10.5667V17.3454H140.146V5.60459H141.232V7.77553C141.963 6.24701 143.58 5.25015 145.286 5.33876C146.371 5.25015 147.545 5.78181 148.166 6.60145C148.897 7.68692 149.251 8.94962 149.163 10.2123V17.434L148.188 17.3454Z" fill="black"/>
<path d="M157.576 17.6999C156.048 17.7885 154.497 17.1682 153.522 15.9941C152.437 14.7315 151.905 13.2029 151.994 11.5637C151.905 9.85791 152.437 8.21863 153.611 6.95594C154.696 5.87047 156.225 5.2502 157.754 5.33881C159.282 5.2502 160.722 5.87047 161.719 6.95594C162.716 8.21863 163.247 9.83576 163.159 11.5637C163.247 13.1808 162.716 14.8201 161.63 16.0828C160.567 17.1682 159.105 17.6999 157.576 17.6999ZM157.576 6.42428C156.314 6.33567 155.051 6.86733 154.231 7.77558C153.323 8.86105 152.88 10.301 152.969 11.6523C152.88 13.0036 153.323 14.3549 154.143 15.3517C154.962 16.3486 156.225 16.7916 157.488 16.7916C158.75 16.8802 159.924 16.3486 160.744 15.4403C161.564 14.3549 162.007 13.0036 161.918 11.5637C162.007 10.2124 161.564 8.86105 160.744 7.77558C160.013 6.86733 158.839 6.31352 157.576 6.42428Z" fill="black"/>
<path d="M165.971 17.3454V0H167.056V17.434C167.056 17.3454 165.971 17.3454 165.971 17.3454Z" fill="black"/>
<path d="M175.541 17.6999C174.013 17.7885 172.462 17.1682 171.487 15.9941C170.402 14.7314 169.959 13.2029 169.959 11.5636C169.87 9.85789 170.402 8.21861 171.576 6.95592C172.661 5.87045 174.19 5.25018 175.718 5.33879C177.247 5.25018 178.687 5.87045 179.684 6.95592C180.681 8.21861 181.212 9.83574 181.124 11.5636C181.212 13.1808 180.681 14.82 179.595 15.9941C178.62 17.1682 177.07 17.6999 175.541 17.6999ZM175.63 6.42426C174.367 6.33565 173.104 6.86731 172.285 7.77556C171.376 8.86103 170.933 10.3009 171.022 11.6522C170.933 13.0035 171.376 14.3548 172.196 15.3517C173.016 16.3486 174.278 16.7916 175.541 16.7916C176.804 16.8802 178.067 16.4372 178.886 15.4403C179.706 14.3548 180.149 13.0035 180.06 11.5636C180.149 10.2123 179.706 8.86103 178.886 7.68695C178.067 6.86731 176.892 6.3135 175.63 6.42426Z" fill="black"/>
<path d="M193.413 16.5256C193.413 18.7852 192.97 20.4023 191.973 21.3992C190.71 22.4846 189.093 23.1049 187.454 22.9277C186.191 22.9277 185.017 22.5733 183.932 22.0194V20.8454C185.017 21.4878 186.191 21.8422 187.454 21.9308C190.71 21.9308 192.327 20.2251 192.327 16.7915V15.2629C191.508 16.7915 189.802 17.7883 188.074 17.6997C186.723 17.6997 185.371 17.1681 184.552 16.0826C183.555 14.8199 183.112 13.2914 183.201 11.6521C183.112 10.035 183.644 8.30707 184.64 7.04438C185.637 5.8703 187.077 5.13927 188.606 5.22788C190.223 5.13927 191.685 5.95891 192.394 7.39882V5.58232H193.479L193.413 16.5256ZM192.327 10.1236C192.327 9.12671 191.973 8.12985 191.242 7.42097C190.511 6.68994 189.536 6.24689 188.451 6.24689C187.277 6.24689 186.102 6.77855 185.283 7.6868C184.463 8.77227 184.02 10.2122 184.109 11.5635C184.02 12.9148 184.375 14.2661 185.194 15.3516C185.925 16.2598 187.011 16.7029 188.074 16.7029C189.248 16.7915 190.334 16.3484 191.153 15.4402C191.884 14.6205 192.327 13.5351 192.239 12.361L192.327 10.1236Z" fill="black"/>
<path d="M197.754 2.70262C197.488 2.70262 197.311 2.61401 197.112 2.43679C196.934 2.25957 196.846 2.08235 196.846 1.79437C196.846 1.52854 196.934 1.35132 197.112 1.15195C197.289 0.974728 197.466 0.886118 197.754 0.886118C198.02 0.886118 198.197 0.974728 198.396 1.15195C198.574 1.32917 198.662 1.50639 198.662 1.79437C198.662 2.0602 198.574 2.23742 198.396 2.43679C198.286 2.5254 198.02 2.70262 197.754 2.70262ZM197.289 17.3454V5.60459H198.374V17.3454H197.289Z" fill="black"/>
<path d="M202.165 11.5636C202.077 12.9149 202.52 14.2662 203.251 15.3517C203.982 16.2599 205.156 16.7916 206.33 16.703C207.77 16.703 209.121 16.1713 210.207 15.2631V16.3486C209.033 17.1682 207.593 17.6999 206.153 17.6113C204.713 17.6999 203.362 17.0796 202.453 15.9941C201.457 14.6428 200.925 13.0257 201.013 11.3864C200.925 9.76927 201.457 8.2186 202.453 7.04452C203.362 5.87044 204.802 5.22802 206.241 5.22802C207.593 5.13941 208.855 5.75968 209.586 6.75654C210.406 8.01923 210.849 9.45914 210.761 11.0098V11.4529L202.165 11.5636ZM209.852 10.5668C209.852 9.39268 209.586 8.30721 208.855 7.39896C208.213 6.66793 207.327 6.22488 206.33 6.31349C205.333 6.31349 204.336 6.66793 203.627 7.39896C202.808 8.30721 202.365 9.39268 202.276 10.5668H209.852Z" fill="black"/>
<path d="M213.288 16.7916V15.5289C213.731 15.8833 214.197 16.1713 214.728 16.3485C215.171 16.5258 215.725 16.6144 216.168 16.6144C218.073 16.6144 218.959 15.8833 218.959 14.3548C218.959 13.8232 218.782 13.358 218.317 13.0035C217.675 12.5605 217.054 12.0953 216.323 11.8294C215.415 11.475 214.618 11.0098 213.975 10.3009C213.532 9.76926 213.244 9.03823 213.244 8.39581C213.244 7.48756 213.599 6.57931 214.33 6.04765C215.149 5.40523 216.035 5.1394 217.032 5.1394C217.94 5.1394 218.849 5.31662 219.646 5.78182V6.9559C218.827 6.42424 217.94 6.13626 216.944 6.13626C216.213 6.13626 215.592 6.31348 215.038 6.77868C214.595 7.13312 214.307 7.77554 214.307 8.3072C214.307 8.75025 214.396 9.30406 214.751 9.6585C215.282 10.1902 216.013 10.5668 216.744 10.8326C217.652 11.187 218.561 11.7408 219.27 12.3611C219.713 12.8928 220.001 13.5352 220.001 14.2662C220.001 15.1745 219.646 15.972 218.915 16.6144C218.096 17.2568 217.01 17.6112 216.035 17.5226C215.171 17.6998 214.175 17.434 213.288 16.7916Z" fill="black"/>
<path d="M98.9816 31.6779C98.3835 31.6779 97.8518 31.545 97.3866 31.2791C96.9214 31.0133 96.5448 30.6367 96.2568 30.1494C95.991 29.662 95.8359 29.1304 95.8359 28.5101C95.8359 27.8898 95.9689 27.3582 96.2568 26.8708C96.5227 26.3835 96.8993 26.0069 97.3866 25.741C97.8518 25.4752 98.4056 25.3423 98.9816 25.3423C99.6683 25.3423 100.289 25.5195 100.798 25.8739C101.263 26.2062 101.618 26.6493 101.839 27.2031H100.577C100.421 26.9151 100.2 26.6714 99.9341 26.5385C99.6462 26.3835 99.3139 26.2948 98.9594 26.2948C98.5607 26.2948 98.2062 26.3835 97.8961 26.5828C97.586 26.76 97.3423 27.0259 97.1651 27.3582C96.9879 27.6904 96.8993 28.0892 96.8993 28.5322C96.8993 28.9753 96.9879 29.374 97.1651 29.7063C97.3423 30.0386 97.586 30.3044 97.8961 30.5038C98.2062 30.681 98.5607 30.7918 98.9594 30.7918C99.336 30.7918 99.6462 30.7032 99.9341 30.5481C100.2 30.393 100.421 30.1715 100.577 29.8614H101.839C101.618 30.4152 101.285 30.8582 100.798 31.1905C100.311 31.5007 99.6905 31.6779 98.9816 31.6779Z" fill="black"/>
<path d="M105.477 31.7223C105.012 31.7223 104.591 31.6115 104.214 31.4122C103.838 31.2128 103.55 30.9027 103.328 30.5261C103.107 30.1495 102.996 29.7064 102.996 29.1969C102.996 28.6874 103.107 28.2444 103.328 27.8678C103.55 27.4912 103.86 27.2032 104.237 26.9817C104.613 26.7823 105.056 26.6715 105.521 26.6715C105.987 26.6715 106.43 26.7823 106.806 26.9817C107.183 27.181 107.493 27.4912 107.715 27.8678C107.936 28.2444 108.047 28.6874 108.047 29.1969C108.047 29.6843 107.936 30.1495 107.715 30.5261C107.493 30.9027 107.183 31.2128 106.806 31.4122C106.385 31.6115 105.942 31.7223 105.477 31.7223ZM105.477 27.5798C105.078 27.5798 104.746 27.7127 104.48 28.0007C104.214 28.2887 104.082 28.6874 104.082 29.1969C104.082 29.7064 104.214 30.1052 104.48 30.3932C104.746 30.6811 105.078 30.814 105.477 30.814C105.721 30.814 105.965 30.7476 106.186 30.6368C106.408 30.5039 106.585 30.3267 106.718 30.083C106.851 29.8393 106.917 29.5514 106.917 29.1969C106.917 28.6874 106.784 28.2887 106.496 28.0007C106.23 27.7127 105.876 27.5798 105.477 27.5798Z" fill="black"/>
<path d="M116.39 31.6336V28.931C116.39 28.5101 116.279 28.1778 116.058 27.9341C115.836 27.6904 115.526 27.5797 115.15 27.5797C114.773 27.5797 114.463 27.6904 114.241 27.9341C114.02 28.1556 113.909 28.5101 113.909 28.931V31.6336H112.846V28.931C112.846 28.5101 112.735 28.1778 112.514 27.9341C112.292 27.6904 111.982 27.5797 111.605 27.5797C111.229 27.5797 110.919 27.6904 110.675 27.9341C110.453 28.1556 110.343 28.5101 110.343 28.931V31.6336H109.279V26.76H110.343V27.5797L110.542 27.3138C110.697 27.1145 110.896 26.9594 111.14 26.8486C111.384 26.7379 111.65 26.6714 111.96 26.6714C112.336 26.6714 112.669 26.76 112.979 26.9151C113.267 27.0702 113.51 27.2917 113.665 27.6018L113.754 27.779L113.843 27.6018C113.998 27.336 114.219 27.0923 114.529 26.9373C114.817 26.76 115.15 26.6936 115.504 26.6936C116.102 26.6936 116.567 26.8708 116.944 27.2252C117.298 27.5797 117.476 28.0892 117.476 28.7538V31.6336H116.39Z" fill="black"/>
<path d="M119.01 34.0485V26.7382H120.073V27.7129L120.272 27.4249C120.428 27.2034 120.649 27.0262 120.915 26.8711C121.181 26.716 121.513 26.6496 121.867 26.6496C122.288 26.6496 122.665 26.7603 122.997 26.9597C123.329 27.1591 123.595 27.447 123.795 27.8236C123.994 28.2002 124.083 28.6433 124.083 29.1528C124.083 29.6623 123.994 30.1053 123.795 30.4819C123.595 30.8585 123.329 31.1687 122.997 31.368C122.665 31.5674 122.288 31.6782 121.867 31.6782C121.513 31.6782 121.203 31.6117 120.937 31.4566C120.671 31.3016 120.45 31.1244 120.272 30.9028L120.073 30.637V34.0485H119.01ZM121.513 27.58C121.269 27.58 121.026 27.6464 120.804 27.7793C120.583 27.9123 120.405 28.0895 120.272 28.3331C120.14 28.5768 120.073 28.8648 120.073 29.1971C120.073 29.5294 120.14 29.8174 120.272 30.061C120.405 30.3047 120.583 30.5041 120.804 30.6148C121.026 30.7478 121.269 30.8142 121.513 30.8142C121.779 30.8142 122.023 30.7478 122.244 30.6148C122.466 30.4819 122.643 30.2826 122.776 30.0389C122.909 29.7952 122.975 29.5072 122.975 29.1749C122.975 28.8427 122.909 28.5547 122.776 28.3331C122.643 28.0895 122.466 27.9123 122.244 27.7793C122.023 27.6464 121.779 27.58 121.513 27.58Z" fill="black"/>
<path d="M127.203 31.7001C126.826 31.7001 126.494 31.6115 126.206 31.4564C125.918 31.3014 125.696 31.0577 125.519 30.7476C125.364 30.4374 125.275 30.0608 125.275 29.6178V26.738H126.339V29.4406C126.339 29.8615 126.449 30.2159 126.671 30.4596C126.893 30.7033 127.203 30.814 127.579 30.814C127.956 30.814 128.266 30.7033 128.487 30.4596C128.709 30.2159 128.82 29.8836 128.82 29.4406V26.738H129.905V31.6115H128.82V30.7476L128.62 31.0134C128.465 31.2128 128.266 31.39 128.022 31.5007C127.779 31.6337 127.513 31.7001 127.203 31.7001Z" fill="black"/>
<path d="M133.202 31.6338C132.183 31.6338 131.696 31.1465 131.696 30.1718V27.6021H131.098V26.7603H131.696V25.4976H132.781V26.7603H133.911V27.6021H132.781V30.1718C132.781 30.3711 132.826 30.5262 132.936 30.6148C133.047 30.7034 133.202 30.7699 133.424 30.7699H133.911V31.6338H133.202Z" fill="black"/>
<path d="M137.261 31.7222C136.796 31.7222 136.375 31.6114 135.998 31.4121C135.622 31.2127 135.334 30.9026 135.134 30.526C134.935 30.1494 134.824 29.7063 134.824 29.1968C134.824 28.6873 134.935 28.2443 135.134 27.8677C135.334 27.4911 135.622 27.2031 135.998 26.9816C136.375 26.7822 136.796 26.6714 137.283 26.6714C137.748 26.6714 138.169 26.7822 138.524 26.9816C138.878 27.181 139.166 27.4689 139.365 27.8234C139.565 28.1778 139.676 28.6209 139.676 29.0861C139.676 29.219 139.676 29.3519 139.653 29.4627H135.888V29.5734C135.91 29.9722 136.065 30.2823 136.308 30.5038C136.552 30.7253 136.862 30.8361 137.217 30.8361C137.704 30.8361 138.081 30.6367 138.302 30.2158H139.476C139.321 30.6146 139.077 30.9469 138.723 31.2349C138.346 31.5671 137.837 31.7222 137.261 31.7222ZM137.239 27.5132C136.884 27.5132 136.596 27.624 136.353 27.8234C136.109 28.0227 135.976 28.3329 135.91 28.6873L135.888 28.8202H138.546V28.7095C138.546 28.355 138.413 28.0449 138.147 27.8234C137.903 27.624 137.593 27.5132 137.239 27.5132Z" fill="black"/>
<path d="M140.92 31.6336V26.7601H141.983V27.8234L142.183 27.4911C142.338 27.2475 142.537 27.0481 142.781 26.893C143.002 26.7601 143.246 26.6936 143.534 26.6715V27.8013H143.312C142.891 27.8013 142.537 27.912 142.316 28.1114C142.094 28.3329 141.961 28.6874 141.961 29.1747V31.6115L140.92 31.6336Z" fill="black"/>
<path d="M148.38 31.6338V26.2507H146.652V25.4311H151.149V26.2507H149.444V31.6338H148.38Z" fill="black"/>
<path d="M152.416 31.6336V26.7601H153.479V27.8234L153.679 27.4911C153.834 27.2474 154.033 27.0481 154.277 26.893C154.498 26.7601 154.742 26.6936 155.03 26.6715V27.8013H154.808C154.388 27.8013 154.033 27.912 153.812 28.1114C153.59 28.3329 153.457 28.6874 153.457 29.1747V31.6115L152.416 31.6336Z" fill="black"/>
<path d="M158.084 31.7222C157.685 31.7222 157.308 31.6114 156.976 31.4121C156.644 31.2127 156.378 30.9026 156.179 30.526C155.979 30.1494 155.891 29.6842 155.891 29.1968C155.891 28.7095 155.979 28.2664 156.179 27.8677C156.378 27.4911 156.644 27.2031 156.976 26.9816C157.308 26.7822 157.685 26.6714 158.106 26.6714C158.46 26.6714 158.793 26.7379 159.058 26.893C159.324 27.048 159.546 27.2253 159.701 27.4468L159.9 27.7126V26.7601H160.986V31.6336H159.9V30.6367L159.701 30.9247C159.546 31.1462 159.324 31.3456 159.058 31.4785C158.77 31.6336 158.438 31.7222 158.084 31.7222ZM158.416 27.5797C158.15 27.5797 157.906 27.6462 157.707 27.7791C157.486 27.912 157.308 28.0892 157.175 28.3329C157.043 28.5766 156.976 28.8645 156.976 29.1747C156.976 29.507 157.043 29.7949 157.175 30.0386C157.308 30.2823 157.486 30.4817 157.707 30.6146C157.929 30.7475 158.172 30.814 158.416 30.814C158.682 30.814 158.926 30.7475 159.147 30.6146C159.369 30.4817 159.546 30.3045 159.679 30.0608C159.812 29.8171 159.878 29.5291 159.878 29.1968C159.878 28.8645 159.812 28.5766 159.679 28.3329C159.546 28.0892 159.369 27.912 159.147 27.7791C158.926 27.6462 158.682 27.5797 158.416 27.5797Z" fill="black"/>
<path d="M162.542 31.6338V26.7603H163.605V31.6338H162.542ZM163.073 25.9407C162.874 25.9407 162.719 25.8742 162.586 25.7634C162.453 25.6305 162.387 25.4976 162.387 25.2982C162.387 25.121 162.453 24.9659 162.586 24.833C162.719 24.7001 162.874 24.6558 163.073 24.6558C163.273 24.6558 163.428 24.7223 163.561 24.833C163.694 24.9659 163.76 25.0989 163.76 25.2982C163.76 25.4755 163.694 25.6305 163.561 25.7634C163.45 25.8742 163.273 25.9407 163.073 25.9407Z" fill="black"/>
<path d="M168.746 31.6336V28.931C168.746 28.5101 168.635 28.1557 168.414 27.912C168.192 27.6683 167.882 27.5576 167.506 27.5576C167.129 27.5576 166.819 27.6683 166.575 27.912C166.354 28.1557 166.243 28.488 166.243 28.931V31.6336H165.18V26.7601H166.243V27.6019L166.442 27.336C166.597 27.1367 166.819 26.9594 167.063 26.8487C167.306 26.7379 167.594 26.6715 167.904 26.6715C168.48 26.6715 168.946 26.8487 169.3 27.2031C169.654 27.5576 169.832 28.0671 169.832 28.7316V31.6115L168.746 31.6336Z" fill="black"/>
<path d="M171.358 31.6338V26.7603H172.422V31.6338H171.358ZM171.89 25.9406C171.69 25.9406 171.535 25.8742 171.402 25.7634C171.27 25.6305 171.203 25.4976 171.203 25.2982C171.203 25.121 171.27 24.9659 171.402 24.833C171.535 24.7001 171.69 24.6558 171.89 24.6558C172.089 24.6558 172.244 24.7223 172.377 24.833C172.51 24.9659 172.577 25.0988 172.577 25.2982C172.577 25.4754 172.51 25.6305 172.377 25.7634C172.266 25.8742 172.089 25.9406 171.89 25.9406Z" fill="black"/>
<path d="M177.563 31.6337V28.9311C177.563 28.5102 177.452 28.1558 177.23 27.9121C177.009 27.6684 176.699 27.5576 176.322 27.5576C175.946 27.5576 175.635 27.6684 175.392 27.9121C175.17 28.1558 175.059 28.4881 175.059 28.9311V31.6337H173.996V26.7602H175.059V27.602L175.259 27.3361C175.414 27.1368 175.635 26.9595 175.879 26.8488C176.123 26.738 176.411 26.6716 176.721 26.6716C177.297 26.6716 177.762 26.8488 178.116 27.2032C178.471 27.5576 178.648 28.0672 178.648 28.7317V31.6115L177.563 31.6337Z" fill="black"/>
<path d="M182.518 34.137C181.831 34.137 181.255 33.9819 180.812 33.6496C180.413 33.3616 180.17 32.9629 180.081 32.4755H181.144C181.233 32.697 181.388 32.8743 181.609 33.0072C181.853 33.1623 182.141 33.2287 182.473 33.2287C182.872 33.2287 183.204 33.0958 183.47 32.8521C183.714 32.6084 183.847 32.2318 183.847 31.7666V30.6147L183.647 30.9027C183.492 31.1242 183.271 31.3236 183.005 31.4565C182.739 31.6116 182.407 31.678 182.052 31.678C181.654 31.678 181.277 31.5673 180.945 31.3679C180.613 31.1685 180.347 30.8584 180.147 30.4818C179.948 30.1052 179.859 29.64 179.859 29.1527C179.859 28.6653 179.948 28.2223 180.147 27.8235C180.347 27.4469 180.613 27.1589 180.945 26.9374C181.277 26.738 181.654 26.6273 182.075 26.6273C182.429 26.6273 182.761 26.6937 183.027 26.8488C183.293 26.9817 183.515 27.1811 183.67 27.4026L183.869 27.6906V26.7159H184.954V31.7445C184.954 32.1875 184.866 32.6084 184.689 32.9629C184.511 33.3173 184.246 33.5831 183.869 33.8047C183.47 34.0262 183.027 34.137 182.518 34.137ZM182.385 27.5798C182.119 27.5798 181.875 27.6463 181.676 27.7792C181.454 27.9121 181.277 28.0893 181.144 28.333C181.011 28.5767 180.945 28.8647 180.945 29.1748C180.945 29.5071 181.011 29.7951 181.144 30.0388C181.277 30.2824 181.454 30.4818 181.676 30.6147C181.897 30.7476 182.141 30.8141 182.385 30.8141C182.651 30.8141 182.894 30.7476 183.116 30.6147C183.337 30.4818 183.515 30.3046 183.647 30.0609C183.78 29.8172 183.847 29.5293 183.847 29.197C183.847 28.8647 183.78 28.5767 183.647 28.333C183.515 28.0893 183.337 27.9121 183.116 27.7792C182.894 27.6463 182.651 27.5798 182.385 27.5798Z" fill="black"/>
<path d="M191.599 31.6779C191.001 31.6779 190.469 31.545 190.004 31.2792C189.539 31.0134 189.162 30.6368 188.874 30.1494C188.608 29.6621 188.453 29.1304 188.453 28.5101C188.453 27.8899 188.586 27.3582 188.874 26.8709C189.14 26.3835 189.516 26.0069 190.004 25.7411C190.469 25.4753 191.023 25.3423 191.599 25.3423C192.285 25.3423 192.906 25.5196 193.415 25.874C193.88 26.2063 194.235 26.6493 194.456 27.2031H193.194C193.039 26.9152 192.817 26.6715 192.551 26.5386C192.263 26.3835 191.931 26.2949 191.577 26.2949C191.178 26.2949 190.823 26.3835 190.513 26.5829C190.203 26.7601 189.959 27.0259 189.782 27.3582C189.605 27.6905 189.516 28.0892 189.516 28.5323C189.516 28.9753 189.605 29.3741 189.782 29.7064C189.959 30.0387 190.203 30.3045 190.513 30.5039C190.823 30.6811 191.178 30.7918 191.577 30.7918C191.953 30.7918 192.263 30.7032 192.551 30.5482C192.817 30.3931 193.039 30.1716 193.194 29.8614H194.456C194.235 30.4152 193.903 30.8583 193.415 31.1906C192.906 31.5007 192.308 31.6779 191.599 31.6779Z" fill="black"/>
<path d="M198.05 31.7223C197.585 31.7223 197.164 31.6115 196.787 31.4121C196.411 31.2128 196.123 30.9026 195.923 30.526C195.724 30.1494 195.613 29.7064 195.613 29.1969C195.613 28.6874 195.724 28.2443 195.923 27.8677C196.123 27.4911 196.411 27.2032 196.787 26.9816C197.164 26.7823 197.585 26.6715 198.072 26.6715C198.537 26.6715 198.958 26.7823 199.313 26.9816C199.667 27.181 199.955 27.469 200.155 27.8234C200.354 28.1779 200.465 28.6209 200.465 29.0861C200.465 29.219 200.465 29.352 200.443 29.4627H196.699V29.5735C196.721 29.9722 196.876 30.2824 197.12 30.5039C197.363 30.7254 197.673 30.8362 198.028 30.8362C198.515 30.8362 198.892 30.6368 199.113 30.2159H200.287C200.132 30.6146 199.889 30.9469 199.534 31.2349C199.113 31.5672 198.626 31.7223 198.05 31.7223ZM198.006 27.5133C197.651 27.5133 197.363 27.6241 197.12 27.8234C196.876 28.0228 196.743 28.3329 196.677 28.6874L196.654 28.8203H199.313V28.7095C199.313 28.3551 199.18 28.045 198.914 27.8234C198.692 27.6241 198.382 27.5133 198.006 27.5133Z" fill="black"/>
<path d="M205.276 31.6337V28.9311C205.276 28.5102 205.165 28.1557 204.943 27.9121C204.722 27.6684 204.412 27.5576 204.035 27.5576C203.658 27.5576 203.348 27.6684 203.105 27.9121C202.883 28.1557 202.772 28.488 202.772 28.9311V31.6337H201.709V26.7601H202.772V27.6019L202.972 27.3361C203.127 27.1367 203.348 26.9595 203.592 26.8487C203.836 26.738 204.124 26.6715 204.434 26.6715C205.01 26.6715 205.475 26.8487 205.829 27.2032C206.184 27.5576 206.361 28.0671 206.361 28.7317V31.6115L205.276 31.6337Z" fill="black"/>
<path d="M209.585 31.6339C208.566 31.6339 208.079 31.1465 208.079 30.1718V27.6021H207.48V26.7603H208.079V25.4977H209.164V26.7603H210.294V27.6021H209.164V30.1718C209.164 30.3712 209.208 30.5263 209.319 30.6149C209.43 30.7035 209.585 30.7699 209.806 30.7699H210.294V31.6339H209.585Z" fill="black"/>
<path d="M213.644 31.7223C213.179 31.7223 212.758 31.6115 212.381 31.4121C212.005 31.2128 211.717 30.9026 211.517 30.526C211.318 30.1494 211.207 29.7064 211.207 29.1969C211.207 28.6874 211.318 28.2443 211.517 27.8677C211.717 27.4911 212.005 27.2032 212.381 26.9816C212.758 26.7823 213.179 26.6715 213.666 26.6715C214.131 26.6715 214.552 26.7823 214.906 26.9816C215.261 27.181 215.549 27.469 215.748 27.8234C215.948 28.1779 216.058 28.6209 216.058 29.0861C216.058 29.219 216.058 29.352 216.036 29.4627H212.293V29.5735C212.315 29.9722 212.47 30.2824 212.713 30.5039C212.957 30.7254 213.267 30.8362 213.622 30.8362C214.109 30.8362 214.486 30.6368 214.707 30.2159H215.881C215.726 30.6146 215.482 30.9469 215.128 31.2349C214.707 31.5672 214.22 31.7223 213.644 31.7223ZM213.599 27.5133C213.245 27.5133 212.957 27.6241 212.713 27.8234C212.47 28.0228 212.337 28.3329 212.27 28.6874L212.248 28.8203H214.906V28.7095C214.906 28.3551 214.774 28.045 214.508 27.8234C214.286 27.6241 213.954 27.5133 213.599 27.5133Z" fill="black"/>
<path d="M217.301 31.6337V26.7601H218.364V27.8235L218.563 27.4912C218.719 27.2475 218.918 27.0481 219.162 26.893C219.383 26.7601 219.627 26.6937 219.915 26.6715V27.8013H219.693C219.272 27.8013 218.918 27.9121 218.696 28.1114C218.475 28.333 218.342 28.6874 218.342 29.1748V31.6115L217.301 31.6337Z" fill="black"/>
</svg>
