<svg width="63" height="70" viewBox="0 0 63 70" fill="none" xmlns="http://www.w3.org/2000/svg">
<path d="M12.8054 69.9274C12.0586 69.4672 11.9857 69.0991 12.095 68.6389C12.1861 68.3076 12.4047 67.9026 13.4065 67.9026C13.6069 67.9026 13.789 67.9026 13.9894 67.9026H17.7235V67.3136C17.7235 67.2032 17.7235 67.1112 17.7235 67.0191C17.76 64.387 19.2719 62.8592 21.8949 62.8592C22.1317 62.8592 22.3502 62.8592 22.587 62.8592C22.8421 62.8592 23.0971 62.8592 23.3521 62.8592C23.7346 62.8592 24.0443 62.8593 24.3357 62.8777C24.3722 62.8777 24.4086 62.8777 24.445 62.8777C25.2101 62.8777 25.4104 62.3623 25.5015 61.9205C25.7747 60.6689 26.0844 59.3988 26.3758 58.1656C26.5034 57.6134 26.6309 57.0612 26.7766 56.4906C26.813 56.3249 26.8494 56.1593 26.8859 55.9752C26.9041 55.8832 26.9223 55.7911 26.9405 55.6991L27.0316 55.2574C27.0316 55.2574 15.902 55.2574 13.9348 55.2574C11.1296 55.2574 8.34264 55.2574 5.53747 55.2574C2.16763 55.2574 0 53.067 0 49.6986C0 36.9245 0 25.4756 0.0182154 14.7262C0.0182154 14.0083 0.109292 13.3273 0.309661 12.7383C1.00184 10.4743 2.91446 9.18583 5.51925 9.18583C9.8363 9.18583 14.1533 9.18583 18.4704 9.18583C27.4141 9.18583 34.7367 9.18583 41.5128 9.20424C42.1321 9.20424 42.5329 8.98336 42.8607 8.48638C43.6258 7.30837 44.4091 6.11194 45.1923 4.95233C45.6841 4.19766 46.1942 3.443 46.686 2.68833C47.615 1.27103 48.8354 0.424327 50.3837 0.111416C50.493 0.0930092 50.5841 0.0377896 50.6387 0.000976562H52.2417C52.2417 0.000976562 52.2599 0.000976562 52.2599 0.0193831C52.3327 0.0561961 52.442 0.0930092 52.5513 0.129822C55.484 0.774051 57.3055 3.29574 57.0141 6.24079C56.9594 6.77458 56.7955 7.32677 56.6316 7.89738C56.5587 8.15507 56.4676 8.43116 56.3948 8.72567L56.2855 9.14902L56.7044 9.18583C56.8866 9.20424 57.0687 9.20424 57.2509 9.22264C57.6516 9.24105 58.0524 9.25946 58.4349 9.35149C60.9668 9.90369 62.5333 12.002 62.5333 14.8366C62.5333 26.488 62.5333 38.2129 62.5333 49.6802C62.5333 50.306 62.4787 50.803 62.3876 51.2447C61.8229 53.748 59.7646 55.3126 57.0141 55.3126C54.1361 55.3126 51.2762 55.3126 48.3982 55.3126H35.4835L35.9025 57.0796C36.3214 58.8834 36.7222 60.5768 37.1593 62.3071C37.2504 62.6936 37.7787 62.8961 38.0519 62.8961C38.3069 62.8961 38.5984 62.9145 38.9444 62.9145C39.1266 62.9145 39.2905 62.9145 39.4727 62.9145C39.6548 62.9145 39.8188 62.9145 40.0009 62.9145C40.347 62.9145 40.8206 62.9145 41.276 62.9513C43.1158 63.0617 44.4637 64.2766 44.7916 66.1172C44.8462 66.4301 44.8644 66.743 44.8827 67.0928C44.8827 67.2584 44.9009 67.4425 44.9191 67.6265L44.9373 67.9763H47.6878C48.2525 67.9763 48.8172 67.9763 49.4001 67.9763C49.983 67.9763 50.329 68.1971 50.493 68.6757C50.6205 69.0623 50.6387 69.504 49.8008 70.001H12.8054V69.9274ZM22.0224 64.884C21.0934 64.884 20.4923 65.0864 20.128 65.5098C19.7637 65.9515 19.6544 66.5958 19.8001 67.5529L19.8547 67.8658H42.7515L42.7879 67.5345C42.8972 66.5406 42.7879 65.8963 42.4054 65.473C42.0411 65.0496 41.4582 64.8656 40.511 64.8656H30.8568L22.0224 64.884ZM27.3413 62.804H35.2103L33.4434 55.2758H29.1081L27.3413 62.804ZM2.00369 45.5203C2.00369 46.9744 2.00369 48.3549 2.00369 49.7538C2.02191 51.9258 3.29698 53.2326 5.42818 53.2326C14.044 53.2326 22.6599 53.2326 31.2758 53.2326C39.8916 53.2326 48.5075 53.2326 57.1234 53.2326C59.2546 53.2326 60.5296 51.9258 60.5479 49.7538C60.5661 48.1893 60.5479 46.6063 60.5479 45.0785V44.1582C60.5479 44.011 60.5297 43.8821 60.5114 43.7349C60.5114 43.6612 60.4932 43.5876 60.4932 43.514L60.4568 43.1827H59.2181C45.4473 43.1827 31.6583 43.1827 17.8875 43.1827H17.596C17.4139 43.1827 17.2317 43.1827 17.0496 43.1643C16.5942 43.1091 16.2481 42.7409 16.2117 42.2624C16.1752 41.7838 16.4849 41.3604 16.9221 41.25C17.2317 41.1764 17.5596 41.1764 17.9239 41.1764C28.0334 41.1764 38.143 41.1764 48.2525 41.1764H60.5661V37.1453C60.5661 29.7091 60.5661 22.2913 60.5661 14.855C60.5661 14.6158 60.5661 14.3765 60.5296 14.1188C60.3475 12.4438 59.1271 11.2658 57.4695 11.2105C57.2873 11.2105 57.1234 11.2105 56.9412 11.2105C56.7591 11.2105 56.5951 11.2105 56.413 11.2105C56.249 11.2105 56.0669 11.2105 55.9029 11.2105C55.6115 11.2105 55.3747 11.2105 55.1561 11.1921C55.1197 11.1921 55.065 11.1921 55.0286 11.1921C54.4639 11.1921 54.045 11.413 53.6442 11.91C49.4547 17.1006 45.9209 21.463 42.3325 25.8253C41.8225 26.4327 41.4035 27.1506 41.786 28.2182C41.8953 28.5311 41.9136 28.936 41.9136 29.3226V29.4698C41.9864 33.372 39.1084 35.9121 36.3943 36.0041C36.0118 36.0225 35.5928 36.0225 35.1556 36.0225C34.4088 36.0225 33.662 36.0041 32.9334 35.9857H32.8241C32.7148 35.9857 32.6055 35.9857 32.478 35.9857C30.4379 35.9857 28.8896 36.5195 27.6327 37.6975C27.4323 37.8816 27.2138 37.9736 26.977 37.9736C26.5398 37.9736 26.1573 37.6423 26.0298 37.1453C25.2647 34.2371 24.9915 31.8259 25.1918 29.5803C25.6108 24.8314 28.7803 21.7391 33.4616 21.555C34.0081 21.5366 34.3542 21.3341 34.6638 20.8556C35.9753 18.8493 37.3051 16.8429 38.6166 14.8734C39.1448 14.082 39.6731 13.2721 40.2013 12.4806C40.2924 12.3518 40.3652 12.2229 40.4563 12.0757C40.511 12.002 40.5474 11.91 40.6203 11.7996L40.9481 11.2474L5.59212 11.2105C3.2059 11.2105 2.00369 12.4438 2.00369 14.855C2.00369 20.966 2.00369 27.0954 2.00369 33.2063V41.1211L2.34978 41.1396C2.44086 41.1396 2.51372 41.158 2.6048 41.158C2.76874 41.1764 2.89624 41.1764 3.04197 41.1764C3.15126 41.1764 3.26055 41.1764 3.36984 41.1764C3.60664 41.1764 3.86166 41.1764 4.09846 41.1764C4.33526 41.1764 4.59027 41.1764 4.82707 41.1764C5.39175 41.1764 5.82892 41.1764 6.22965 41.1948C6.86719 41.2132 7.28614 41.6365 7.26793 42.2255C7.24971 42.8145 6.84898 43.1827 6.17501 43.2011C5.91999 43.2011 5.64676 43.2195 5.39175 43.2195C5.20959 43.2195 5.02744 43.2195 4.84529 43.2195C4.66313 43.2195 4.48098 43.2195 4.29883 43.2195H1.98547C2.00369 43.2011 2.00369 44.8761 2.00369 45.5203ZM33.4981 23.5245C30.8204 23.5245 28.3067 25.402 27.5416 27.9789C26.8494 30.3165 27.1409 32.6726 27.5234 34.6605L27.6145 35.139L28.0517 34.9182C29.3449 34.2739 30.784 33.9794 32.5691 33.9794C32.9516 33.9794 33.3523 33.9978 33.8077 34.0162C34.2631 34.0346 34.7185 34.0714 35.1739 34.0714C35.3924 34.0714 35.5746 34.0714 35.7568 34.053C37.9062 33.9242 39.3998 32.7462 39.7641 30.8687C39.9099 30.0772 39.8188 29.2489 39.7277 28.4391C39.7095 28.3286 39.7095 28.2182 39.6913 28.1077C39.6366 27.666 39.2905 27.261 39.0173 27.0402C37.6512 25.9726 36.2486 24.9418 34.8824 23.9295L34.8642 23.911C34.591 23.7086 34.3177 23.5981 34.0809 23.5613C33.8806 23.5245 33.6802 23.5245 33.4981 23.5245ZM36.1028 22.2913L40.1649 25.3284L43.6076 21.0949L39.1266 17.7449L36.1028 22.2913ZM51.3855 2.00729C50.1651 2.00729 49.1268 2.6147 48.38 3.75591L47.0139 5.81744C44.9009 9.00177 42.7879 12.1861 40.6931 15.3704C40.6203 15.4809 40.5656 15.5729 40.5292 15.6833C40.511 15.7201 40.4928 15.7754 40.4563 15.8122L40.3106 16.0883L44.8827 19.5119L46.4127 17.6344L48.5804 14.9655C50.4019 12.7199 52.2781 10.4191 54.1361 8.13666C55.065 6.99546 55.3201 5.78062 54.9375 4.51057C54.4821 3.07487 53.4621 2.19135 51.9684 1.98888C51.7498 2.02569 51.5677 2.00729 51.3855 2.00729ZM11.7307 43.1827C11.1842 43.1827 10.7471 42.7409 10.7471 42.1887C10.7471 41.6549 11.2024 41.1948 11.7307 41.1764C12.0039 41.1764 12.2589 41.2868 12.4593 41.4893C12.6415 41.6917 12.7508 41.9494 12.7508 42.2071C12.7325 42.7593 12.2954 43.1827 11.7307 43.1827Z" fill="white"/>
</svg>
