<svg width="93" height="70" viewBox="0 0 93 70" fill="none" xmlns="http://www.w3.org/2000/svg">
<path d="M16.3821 36.0997C16.3821 36.8842 16.7645 37.3385 17.4869 37.3385C20.4403 37.3591 23.3723 37.3591 26.3257 37.3385C27.0056 37.3385 27.388 36.9255 27.4305 36.2442C27.4517 35.5629 27.0693 35.1912 26.4106 35.0673C26.1769 35.026 25.9432 35.0467 25.6882 35.0467C23.6698 35.0467 21.6513 35.0467 19.6329 35.0467C19.3567 35.0467 19.0805 35.0467 18.8042 35.0467C18.8042 31.5781 18.8042 28.2334 18.8042 24.868C33.4859 24.868 48.1037 24.868 62.7641 24.868C62.7641 28.254 62.7641 31.5987 62.7641 35.0467C62.3392 35.0467 61.978 35.0467 61.638 35.0467C51.652 35.0467 41.6659 35.0467 31.6799 35.0467C31.3612 35.0467 31.0425 35.0467 30.7238 35.1086C30.1289 35.2532 29.8101 35.6661 29.8314 36.2442C29.8526 36.8429 30.1926 37.2559 30.8512 37.3385C31.0425 37.3591 31.2124 37.3591 31.4037 37.3591C42.1334 37.3591 52.863 37.3591 63.5927 37.3591C64.8251 37.3591 65.165 37.0081 65.1862 35.7693C65.1862 31.8671 65.1862 27.9856 65.1862 24.0834C65.1862 22.8653 64.8038 22.4937 63.5715 22.4937C48.3587 22.4937 33.1459 22.4937 17.9119 22.4937C16.6796 22.4937 16.3184 22.8653 16.3184 24.0834C16.3184 26.561 16.3184 29.0386 16.3184 31.5162C16.3609 33.044 16.3609 34.5718 16.3821 36.0997Z" fill="white"/>
<path d="M26.9192 11.2412C25.9206 11.2412 25.0919 12.0258 25.0707 12.9755C25.0495 13.9665 25.8993 14.7924 26.9404 14.7718C27.9603 14.7511 28.7252 13.9872 28.7252 12.9962C28.7039 12.0051 27.9178 11.2412 26.9192 11.2412Z" fill="white"/>
<path d="M15.021 11.2418C14.0224 11.2831 13.215 12.1089 13.2575 13.0587C13.3 14.0291 14.1286 14.793 15.1272 14.7723C16.147 14.7517 16.9119 13.9671 16.9119 12.9761C16.9119 11.9851 16.0621 11.2005 15.021 11.2418Z" fill="white"/>
<path d="M21.0782 11.2418C20.0584 11.2005 19.1873 12.0057 19.166 12.9967C19.166 13.9464 19.9734 14.7723 20.972 14.7929C21.9706 14.8136 22.7992 14.0497 22.8205 13.0586C22.8417 12.0676 22.0768 11.283 21.0782 11.2418Z" fill="white"/>
<path d="M85.2213 32.2599L88.6208 28.75L81.5881 27.1189C81.5881 19.7275 81.5881 12.3361 81.5881 4.94465C81.5031 4.67625 81.3969 4.40785 81.3119 4.13944C80.547 1.72381 78.3373 0.0101528 75.7452 0.0101528C67.0765 -0.0104937 58.3865 0.0101528 49.7178 0.0101528C48.8679 0.0101528 48.3155 0.485021 48.3155 1.16635C48.3155 1.86833 48.8679 2.32256 49.8027 2.32256C58.1953 2.32256 66.5878 2.32256 74.9803 2.32256C77.8487 2.32256 79.2085 3.64393 79.2085 6.45185C79.2085 13.1619 79.2085 19.872 79.2085 26.5615L73.4718 25.2401C73.4718 20.636 73.4718 16.0112 73.4718 11.407C73.4718 8.66102 72.0908 7.29835 69.2862 7.29835C50.2914 7.29835 31.3179 7.29835 12.3232 7.29835C9.56111 7.29835 8.13757 8.66102 8.13757 11.3451C8.13757 22.7419 8.13757 34.1594 8.13757 45.5562C8.13757 45.8659 8.13757 46.155 8.13757 46.506C6.22534 46.506 4.37686 46.506 2.4009 46.506C2.4009 46.2376 2.4009 45.9692 2.4009 45.7007C2.4009 32.549 2.4009 19.3765 2.4009 6.22473C2.4009 3.74716 3.86694 2.3432 6.39532 2.3432C18.9522 2.3432 31.5092 2.3432 44.0873 2.3432C45.3409 2.3432 45.8933 2.01286 45.9146 1.22829C45.9358 0.402435 45.3621 0.0307992 44.0873 0.0307992C31.6154 0.0101528 19.1647 0.0101528 6.71402 0.0101528C3.0808 0.0101528 1.10484 1.4554 0.0849876 4.82078C0.0637407 4.86207 0.0212469 4.90336 0 4.9653C0 21.2347 0 37.4835 0 53.7529C1.46604 57.6963 2.95332 58.7287 7.30894 58.7287C15.319 58.7287 23.3504 58.7287 31.3604 58.7287C31.6579 58.7287 31.9553 58.7287 32.3165 58.7287C31.8916 61.805 31.5092 64.7368 31.1055 67.6892C29.7244 67.6892 28.4709 67.6892 27.196 67.6892C26.2187 67.6892 25.645 68.1434 25.6663 68.8661C25.6875 69.5887 26.2399 70.0016 27.1748 70.0016C36.2472 70.0016 45.3409 70.0016 54.4133 70.0016C55.3907 70.0016 55.9431 69.5474 55.9219 68.8041C55.9006 68.0815 55.3694 67.6892 54.4133 67.6892C53.1173 67.6892 51.8212 67.6892 50.4827 67.6892C50.079 64.6748 49.6753 61.743 49.2716 58.7287C49.6328 58.7287 49.9302 58.7287 50.2064 58.7287C53.9247 58.7287 57.6429 58.7287 61.3611 58.7287C61.5948 58.7287 61.8498 58.7493 62.0835 58.708C62.7209 58.6254 63.1033 58.2744 63.1246 57.6344C63.1671 56.9531 62.7846 56.5608 62.1472 56.4369C61.871 56.375 61.5735 56.4163 61.2761 56.4163C43.11 56.4163 24.9439 56.4163 6.79901 56.4163C6.50155 56.4163 6.2041 56.4163 5.92789 56.4163C4.24938 56.313 2.7621 55.2807 2.54963 53.7116C2.33716 52.1424 2.50714 50.5527 2.50714 48.9835C28.0459 48.9835 53.6059 48.9835 79.1872 48.9835C79.1872 50.243 79.1872 51.4198 79.1872 52.5967C79.1872 54.9297 77.6999 56.375 75.3203 56.375C72.5369 56.375 69.7536 56.375 66.949 56.375C66.0991 56.375 65.5467 56.8498 65.5467 57.5312C65.5467 58.2331 66.0779 58.6874 66.9278 58.6874C69.8811 58.6874 72.8131 58.708 75.7665 58.6667C78.2949 58.6254 80.4833 56.9944 81.2694 54.6613C81.3757 54.3516 81.4819 54.0213 81.5669 53.7116C81.5669 48.4054 81.5669 43.0786 81.5669 37.7725L88.3659 44.0077L92.9127 39.321L85.2213 32.2599ZM34.7387 58.7287C38.8181 58.7287 42.8125 58.7287 46.8707 58.7287C47.2744 61.6811 47.6568 64.6129 48.0605 67.6066C43.2162 67.6066 38.4569 67.6066 33.5489 67.6066C33.9313 64.6542 34.335 61.7017 34.7387 58.7287ZM36.6934 46.2169C36.6934 46.3408 36.2897 46.5472 36.056 46.5472C34.8024 46.5885 33.5701 46.5679 32.3165 46.5679C28.1309 46.5679 23.924 46.5679 19.7384 46.5679C19.4622 46.5679 19.1647 46.5679 18.8035 46.5679C18.8035 45.1846 18.8035 43.9252 18.8035 42.6038C24.7526 42.6038 30.6805 42.6038 36.7359 42.6038C36.7147 43.8219 36.7359 45.0194 36.6934 46.2169ZM62.7846 46.5266C56.8355 46.5266 50.9076 46.5266 44.916 46.5266C44.916 45.2052 44.916 43.9458 44.916 42.6038C50.8863 42.6038 56.8142 42.6038 62.7846 42.6038C62.7846 43.9252 62.7846 45.1846 62.7846 46.5266ZM71.0072 46.5266C69.1162 46.5266 67.2465 46.5266 65.228 46.5266C65.228 45.8246 65.228 45.1433 65.228 44.462C65.228 43.5329 65.228 42.6038 65.228 41.6747C65.2068 40.6011 64.8456 40.2294 63.7407 40.2294C60.6387 40.2294 57.5366 40.2294 54.4133 40.2294C50.9926 40.2294 47.5718 40.2294 44.1298 40.2294C42.7913 40.2294 42.4513 40.5598 42.4513 41.8812C42.4513 43.409 42.4513 44.9162 42.4513 46.506C41.3465 46.506 40.3054 46.506 39.1793 46.506C39.158 46.2376 39.1368 45.9692 39.1368 45.7007C39.1368 44.3381 39.1581 42.9754 39.1368 41.5921C39.1156 40.6424 38.7119 40.2294 37.7982 40.2294C31.1055 40.2294 24.4127 40.2294 17.7199 40.2294C16.7851 40.2294 16.4026 40.6424 16.3814 41.5921C16.3601 43.2232 16.3814 44.8336 16.3814 46.5266C14.4267 46.5266 12.5357 46.5266 10.581 46.5266C10.581 37.2976 10.581 28.1513 10.581 18.9429C30.723 18.9429 50.8438 18.9429 71.0284 18.9429C71.0072 28.11 71.0072 37.2976 71.0072 46.5266ZM71.0709 16.5067C50.8651 16.5067 30.7443 16.5067 10.5597 16.5067C10.5597 14.5246 10.5385 12.5632 10.581 10.6224C10.6022 10.0443 11.0696 9.73463 11.6646 9.65205C11.962 9.61075 12.2382 9.6314 12.5357 9.6314C31.3817 9.6314 50.2277 9.6314 69.0737 9.6314C70.7947 9.6314 71.0709 9.8998 71.0709 11.5515C71.0709 13.1826 71.0709 14.8137 71.0709 16.5067ZM79.1872 46.5266C77.275 46.5266 75.4265 46.5266 73.4506 46.5266C73.4506 46.2376 73.4506 45.9279 73.4506 45.6388C73.4506 39.4449 73.4506 33.2509 73.4506 27.0777L77.5087 40.2294L79.2085 38.4951C79.2085 40.8488 79.2085 43.2232 79.2085 45.5769C79.1872 45.8659 79.1872 46.1756 79.1872 46.5266ZM88.3021 41.1172L81.5881 34.9646L80.5895 34.0355L79.2085 35.4601L78.5073 36.1827L75.9789 27.9448L79.2297 28.6881L81.6306 29.2455L84.6052 29.9269L82.268 32.3425L89.9807 39.4242L88.3021 41.1172Z" fill="white"/>
</svg>
