<svg width="17" height="12" viewBox="0 0 17 12" fill="none" xmlns="http://www.w3.org/2000/svg">
<path d="M16.1692 2.20073C16.18 1.98265 16.1477 1.76458 16.0741 1.559C16.0005 1.35343 15.8871 1.16439 15.7403 1.00271C15.5936 0.841036 15.4164 0.709895 15.2189 0.6168C15.0214 0.523705 14.8074 0.470485 14.5893 0.460187C14.5893 0.460187 11.1484 0.286133 8.47065 0.286133C5.7929 0.286133 2.25825 0.460187 2.25825 0.460187C1.82013 0.484411 1.40942 0.681093 1.11588 1.00724C0.822347 1.33339 0.669865 1.76249 0.691766 2.20073C0.488314 3.3719 0.40309 4.56055 0.437379 5.74876C0.402256 6.93255 0.487489 8.11684 0.691766 9.2834C0.677089 9.71712 0.832819 10.1393 1.12561 10.4597C1.4184 10.78 1.82497 10.9729 2.25825 10.9972C2.25825 10.9972 5.7929 11.2114 8.47065 11.2114C11.1484 11.2114 14.5893 10.9972 14.5893 10.9972C14.8074 10.9869 15.0214 10.9336 15.2189 10.8406C15.4164 10.7475 15.5936 10.6163 15.7403 10.4546C15.8871 10.293 16.0005 10.1039 16.0741 9.89835C16.1477 9.69277 16.18 9.4747 16.1692 9.25662C16.3691 8.08952 16.4543 6.90567 16.4236 5.72198C16.4518 4.54279 16.3666 3.36362 16.1692 2.20073ZM6.78367 8.31941V3.21828L11.1484 5.74876L6.78367 8.31941Z" fill="white" fill-opacity="0.65"/>
</svg>
