<svg width="86" height="61" viewBox="0 0 86 61" fill="none" xmlns="http://www.w3.org/2000/svg">
<path d="M84.2924 18.233C82.5884 19.4636 81.121 20.789 79.8904 22.209C78.6597 23.629 77.7604 25.0963 77.1924 26.611L85.4284 30.871L85.4284 58.703L59.8684 60.975L45.6684 53.875L45.6684 27.179C45.6684 21.215 46.8517 16.103 49.2184 11.843C51.585 7.58297 54.8984 3.89097 59.1584 0.766972L73.3584 7.86698L84.2924 18.233ZM84.0084 57.425L84.0084 32.433L74.9204 33.143C74.9204 29.3563 75.583 26.2796 76.9084 23.913C78.139 21.4516 79.8904 19.511 82.1624 18.091L73.3584 9.71297C69.6664 12.3636 66.7317 15.7243 64.5544 19.795C62.377 23.771 61.2884 28.599 61.2884 34.279L61.2884 59.413L84.0084 57.425ZM38.808 18.233C37.104 19.4636 35.6367 20.789 34.406 22.209C33.1753 23.629 32.276 25.0963 31.708 26.611L39.944 30.871L39.944 58.703L14.384 60.975L0.184003 53.875L0.184005 27.179C0.184006 21.215 1.36734 16.103 3.73401 11.843C6.10067 7.58297 9.41401 3.89097 13.674 0.766968L27.874 7.86697L38.808 18.233ZM38.524 57.425L38.524 32.433L29.436 33.143C29.436 29.3563 30.0987 26.2796 31.424 23.913C32.6547 21.4516 34.406 19.511 36.678 18.091L27.874 9.71297C24.182 12.3636 21.2473 15.7243 19.07 19.795C16.8927 23.771 15.804 28.599 15.804 34.279L15.804 59.413L38.524 57.425Z" fill="white"/>
</svg>
